<?xml version="1.0" encoding="UTF-8"?><svg xmlns="http://www.w3.org/2000/svg" xmlns:xlink="http://www.w3.org/1999/xlink" height="1429.6" preserveAspectRatio="xMidYMid meet" version="1.0" viewBox="237.2 233.9 1897.4 1429.6" width="1897.4" zoomAndPan="magnify"><g><g id="change1_1"><path d="M 2087.988281 1663.460938 C 2114.128906 1577 2128.242188 1485.289062 2128.242188 1390.300781 C 2128.242188 869.828125 1706.328125 447.910156 1185.855469 447.910156 C 665.390625 447.910156 243.464844 869.828125 243.464844 1390.300781 C 243.464844 1485.289062 257.582031 1577 283.730469 1663.460938 L 2087.988281 1663.460938" fill="#d32f36"/></g><g id="change2_1"><path d="M 1780.34375 1308.640625 L 1780.125 1308.640625 L 1780.125 1331.101562 L 1743.269531 1331.101562 L 1743.269531 1308.640625 L 1743.050781 1308.640625 L 1742.371094 1307.960938 L 1743.050781 1307.269531 L 1747.476562 1307.269531 C 1747.945312 1299.820312 1754.109375 1293.910156 1761.691406 1293.910156 C 1769.273438 1293.910156 1775.445312 1299.820312 1775.90625 1307.269531 L 1780.34375 1307.269531 L 1781.019531 1307.960938 L 1780.34375 1308.640625" fill="#8e1e21"/></g><g id="change2_2"><path d="M 1287.816406 1378.539062 L 1288.234375 1378.621094 L 1288.757812 1378.621094 L 1288.757812 1386.730469 L 1287.816406 1386.730469 Z M 1390.574219 1358.359375 C 1392.480469 1359.738281 1394.804688 1360.570312 1397.332031 1360.570312 C 1399.863281 1360.570312 1402.1875 1359.738281 1404.078125 1358.359375 L 1404.078125 1370.359375 L 1390.574219 1370.140625 Z M 1129.328125 1359.789062 L 1130.078125 1360.550781 L 1130.328125 1360.550781 L 1130.328125 1505.589844 L 1848.160156 1505.589844 L 1848.160156 1236.511719 L 1801.027344 1236.511719 L 1801.027344 1460.289062 L 1796.695312 1460.289062 L 1796.695312 1420.46875 L 1797.113281 1420.46875 C 1797.828125 1420.46875 1798.394531 1419.890625 1798.394531 1419.171875 C 1798.394531 1418.449219 1797.828125 1417.878906 1797.113281 1417.878906 L 1792.125 1417.878906 L 1792.125 1364.640625 L 1792.488281 1364.640625 C 1793.121094 1364.640625 1793.621094 1364.140625 1793.621094 1363.519531 C 1793.621094 1362.898438 1793.121094 1362.398438 1792.488281 1362.398438 L 1786.433594 1362.398438 L 1786.433594 1332.96875 L 1786.726562 1332.96875 L 1787.636719 1332.0625 C 1787.636719 1331.550781 1787.226562 1331.140625 1786.726562 1331.140625 L 1736.65625 1331.140625 C 1736.160156 1331.140625 1735.761719 1331.550781 1735.761719 1332.0625 L 1736.65625 1332.96875 L 1736.964844 1332.96875 L 1736.964844 1362.398438 L 1730.898438 1362.398438 C 1730.273438 1362.398438 1729.761719 1362.898438 1729.761719 1363.519531 C 1729.761719 1364.140625 1730.273438 1364.640625 1730.898438 1364.640625 L 1731.261719 1364.640625 L 1731.261719 1417.878906 L 1728.210938 1417.878906 L 1728.210938 1383.75 L 1709.75 1383.75 C 1709.558594 1383.128906 1709.015625 1382.679688 1708.335938 1382.679688 L 1705.078125 1382.679688 L 1705.078125 1363.550781 L 1707.699219 1363.550781 L 1703.5625 1338.152344 L 1661.539062 1338.152344 L 1657.390625 1363.550781 L 1660.03125 1363.550781 L 1660.03125 1382.679688 L 1656.765625 1382.679688 C 1656.085938 1382.679688 1655.542969 1383.128906 1655.328125 1383.75 L 1644.757812 1383.75 L 1644.757812 1309.429688 L 1645.566406 1309.429688 C 1646.914062 1309.429688 1648.023438 1308.308594 1648.023438 1306.960938 C 1648.023438 1305.601562 1646.914062 1304.5 1645.566406 1304.5 L 1640.28125 1304.5 L 1640.28125 1259.019531 L 1644.554688 1259.019531 L 1637.808594 1242.820312 L 1620.359375 1242.820312 L 1620.359375 1221.988281 L 1622.683594 1221.988281 C 1623.988281 1221.988281 1625.054688 1220.941406 1625.054688 1219.628906 C 1625.054688 1218.339844 1623.988281 1217.28125 1622.683594 1217.28125 L 1614.453125 1217.28125 L 1614.453125 1202.050781 L 1615.949219 1202.050781 C 1616.789062 1202.050781 1617.46875 1201.371094 1617.46875 1200.519531 C 1617.46875 1199.679688 1616.789062 1199 1615.949219 1199 L 1604.757812 1199 L 1604.757812 1157.71875 L 1602.660156 1157.71875 L 1602.660156 1199 L 1591.46875 1199 C 1590.617188 1199 1589.949219 1199.679688 1589.949219 1200.519531 C 1589.949219 1201.371094 1590.617188 1202.050781 1591.46875 1202.050781 L 1592.953125 1202.050781 L 1592.953125 1217.28125 L 1584.734375 1217.28125 C 1583.429688 1217.28125 1582.363281 1218.339844 1582.363281 1219.628906 C 1582.363281 1220.941406 1583.429688 1221.988281 1584.734375 1221.988281 L 1587.046875 1221.988281 L 1587.046875 1242.820312 L 1569.597656 1242.820312 L 1562.863281 1259.019531 L 1567.136719 1259.019531 L 1567.136719 1304.5 L 1561.863281 1304.5 C 1560.492188 1304.5 1559.402344 1305.601562 1559.402344 1306.960938 C 1559.402344 1308.308594 1560.492188 1309.429688 1561.863281 1309.429688 L 1562.660156 1309.429688 L 1562.660156 1399.128906 L 1552.769531 1399.128906 L 1552.769531 1318.800781 L 1553.078125 1318.800781 C 1553.621094 1318.800781 1554.050781 1318.359375 1554.050781 1317.828125 C 1554.050781 1317.300781 1553.621094 1316.859375 1553.078125 1316.859375 L 1500.046875 1316.859375 C 1499.515625 1316.859375 1499.082031 1317.300781 1499.082031 1317.828125 C 1499.082031 1318.359375 1499.515625 1318.800781 1500.046875 1318.800781 L 1500.355469 1318.800781 L 1500.355469 1368.839844 L 1481.078125 1379.820312 L 1481.078125 1341.339844 L 1478.277344 1341.339844 L 1478.277344 1381.398438 L 1448.039062 1398.628906 L 1448.039062 1408.53125 L 1435.851562 1408.53125 L 1435.851562 1383.519531 L 1433.980469 1383.519531 L 1433.980469 1408.53125 L 1422.109375 1408.53125 L 1422.109375 1370.660156 L 1404.976562 1370.378906 L 1404.976562 1357.628906 C 1407.332031 1355.539062 1408.808594 1352.5 1408.808594 1349.101562 C 1408.808594 1342.75 1403.683594 1337.609375 1397.332031 1337.609375 C 1390.996094 1337.609375 1385.859375 1342.75 1385.859375 1349.101562 C 1385.859375 1352.492188 1387.34375 1355.519531 1389.691406 1357.628906 L 1389.691406 1370.128906 L 1369.710938 1369.800781 L 1369.710938 1408.53125 L 1354.847656 1408.53125 L 1354.847656 1378.621094 L 1355.382812 1378.621094 C 1356.253906 1378.621094 1356.980469 1377.902344 1356.980469 1377.007812 C 1356.980469 1376.121094 1356.253906 1375.410156 1355.382812 1375.410156 L 1350.152344 1375.410156 L 1350.152344 1308.480469 L 1350.359375 1308.480469 C 1351.253906 1308.480469 1351.96875 1307.761719 1351.96875 1306.871094 C 1351.96875 1305.980469 1351.253906 1305.269531 1350.359375 1305.269531 L 1345.300781 1305.269531 L 1345.300781 1276.75 L 1351.390625 1276.75 L 1332.726562 1244.441406 L 1310.867188 1244.441406 L 1292.214844 1276.75 L 1298.304688 1276.75 L 1298.304688 1305.269531 L 1293.246094 1305.269531 C 1292.363281 1305.269531 1291.648438 1305.980469 1291.648438 1306.871094 C 1291.648438 1307.761719 1292.363281 1308.480469 1293.246094 1308.480469 L 1293.460938 1308.480469 L 1293.460938 1375.410156 L 1288.234375 1375.410156 L 1287.816406 1375.480469 L 1287.816406 1325.511719 L 1288.007812 1325.511719 C 1288.824219 1325.511719 1289.480469 1324.851562 1289.480469 1324.039062 C 1289.480469 1323.21875 1288.824219 1322.582031 1288.007812 1322.582031 L 1235.773438 1322.582031 C 1234.945312 1322.582031 1234.296875 1323.21875 1234.296875 1324.039062 C 1234.296875 1324.851562 1234.945312 1325.511719 1235.773438 1325.511719 L 1235.953125 1325.511719 L 1235.953125 1386.730469 L 1231.179688 1386.730469 C 1230.363281 1386.730469 1229.707031 1387.390625 1229.707031 1388.199219 C 1229.707031 1389.011719 1230.363281 1389.679688 1231.179688 1389.679688 L 1231.65625 1389.679688 L 1231.65625 1430.539062 L 1218.957031 1430.539062 L 1218.957031 1297.199219 L 1219.570312 1297.199219 C 1220.613281 1297.199219 1221.453125 1296.371094 1221.453125 1295.3125 C 1221.453125 1294.28125 1220.613281 1293.441406 1219.570312 1293.441406 L 1215.53125 1293.441406 L 1215.53125 1269.691406 L 1218.796875 1269.691406 L 1213.640625 1238.160156 L 1161.484375 1238.160156 L 1156.324219 1269.691406 L 1159.601562 1269.691406 L 1159.601562 1293.441406 L 1155.554688 1293.441406 C 1154.511719 1293.441406 1153.671875 1294.28125 1153.671875 1295.3125 C 1153.671875 1296.371094 1154.511719 1297.199219 1155.554688 1297.199219 L 1156.152344 1297.199219 L 1156.152344 1359.03125 L 1130.078125 1359.03125 L 1129.328125 1359.789062" fill="#8e1e21"/></g><g id="change3_1"><path d="M 1882.449219 1444.300781 L 1880.96875 1444.300781 L 1880.96875 1431.382812 L 1881.808594 1431.382812 L 1882.449219 1431.242188 Z M 1428.421875 1463.992188 L 1406.960938 1463.992188 L 1406.960938 1454 C 1409.972656 1456.203125 1413.664062 1457.519531 1417.683594 1457.519531 C 1421.691406 1457.519531 1425.410156 1456.203125 1428.421875 1454 Z M 2133.328125 1234.382812 L 2067.539062 1234.382812 C 2066.898438 1234.382812 2066.359375 1234.921875 2066.359375 1235.582031 C 2066.359375 1236.253906 2066.898438 1236.792969 2067.539062 1236.792969 L 2067.945312 1236.792969 L 2067.945312 1298.851562 L 2003.03125 1501.671875 L 2003.03125 1513.953125 L 1971.773438 1513.953125 L 1971.773438 1448.980469 L 1972.546875 1448.980469 C 1973.828125 1448.980469 1974.890625 1447.921875 1974.890625 1446.632812 C 1974.890625 1445.339844 1973.828125 1444.300781 1972.546875 1444.300781 L 1964.9375 1444.300781 L 1964.9375 1346.921875 L 1965.238281 1346.921875 C 1966.535156 1346.921875 1967.582031 1345.871094 1967.582031 1344.582031 C 1967.582031 1343.289062 1966.535156 1342.242188 1965.238281 1342.242188 L 1882.148438 1342.242188 C 1880.851562 1342.242188 1879.816406 1343.289062 1879.816406 1344.582031 C 1879.816406 1345.871094 1880.851562 1346.921875 1882.148438 1346.921875 L 1882.449219 1346.921875 L 1882.449219 1426.402344 L 1881.808594 1426.273438 L 1873.480469 1426.273438 L 1873.480469 1319.839844 L 1873.820312 1319.839844 C 1875.234375 1319.839844 1876.359375 1318.691406 1876.359375 1317.273438 C 1876.359375 1315.863281 1875.234375 1314.722656 1873.820312 1314.722656 L 1865.777344 1314.722656 L 1865.777344 1269.363281 L 1875.46875 1269.363281 L 1845.78125 1217.972656 L 1811.015625 1217.972656 L 1781.339844 1269.363281 L 1791.03125 1269.363281 L 1791.03125 1314.722656 L 1782.992188 1314.722656 C 1781.578125 1314.722656 1780.4375 1315.863281 1780.4375 1317.273438 C 1780.4375 1318.691406 1781.578125 1319.839844 1782.992188 1319.839844 L 1783.332031 1319.839844 L 1783.332031 1426.273438 L 1775.015625 1426.273438 C 1773.601562 1426.273438 1772.460938 1427.410156 1772.460938 1428.820312 C 1772.460938 1430.242188 1773.601562 1431.382812 1775.015625 1431.382812 L 1775.839844 1431.382812 L 1775.839844 1478.960938 L 1752.203125 1478.960938 L 1752.203125 1417.359375 L 1668.878906 1418.722656 L 1668.878906 1478.960938 L 1627.640625 1478.960938 L 1627.640625 1463.199219 L 1623.871094 1461.0625 L 1623.871094 1416.019531 L 1612.59375 1416.019531 L 1612.59375 1394.910156 L 1610.773438 1394.910156 L 1610.773438 1416.019531 L 1586.15625 1416.019531 L 1586.15625 1394.910156 L 1584.335938 1394.910156 L 1584.335938 1416.019531 L 1571.527344 1416.019531 L 1571.527344 1431.25 L 1544.421875 1415.820312 L 1544.421875 1219.511719 L 1544.917969 1219.511719 C 1545.769531 1219.511719 1546.449219 1218.832031 1546.449219 1217.972656 C 1546.449219 1217.121094 1545.769531 1216.441406 1544.917969 1216.441406 L 1535.710938 1216.441406 L 1535.710938 1035.8125 L 1473.652344 1035.8125 L 1473.652344 1216.441406 L 1460.570312 1216.441406 C 1459.71875 1216.441406 1459.050781 1217.121094 1459.050781 1217.972656 C 1459.050781 1218.832031 1459.71875 1219.511719 1460.570312 1219.511719 L 1461.082031 1219.511719 L 1461.082031 1530.0625 L 1456.628906 1530.0625 L 1456.628906 1466.660156 L 1457.0625 1466.660156 C 1457.808594 1466.660156 1458.398438 1466.0625 1458.398438 1465.332031 C 1458.398438 1464.589844 1457.808594 1463.992188 1457.0625 1463.992188 L 1429.851562 1463.992188 L 1429.851562 1452.851562 C 1433.582031 1449.511719 1435.9375 1444.660156 1435.9375 1439.261719 C 1435.9375 1429.183594 1427.765625 1421.011719 1417.683594 1421.011719 C 1407.601562 1421.011719 1399.429688 1429.183594 1399.429688 1439.261719 C 1399.429688 1444.660156 1401.800781 1449.511719 1405.519531 1452.851562 L 1405.519531 1463.992188 L 1383.714844 1463.992188 C 1382.980469 1463.992188 1382.378906 1464.589844 1382.378906 1465.332031 C 1382.378906 1466.0625 1382.980469 1466.660156 1383.714844 1466.660156 L 1384.148438 1466.660156 L 1384.148438 1530.0625 L 1379.171875 1530.0625 L 1379.171875 1471.96875 L 1379.851562 1471.96875 C 1380.976562 1471.96875 1381.894531 1471.050781 1381.894531 1469.921875 C 1381.894531 1468.792969 1380.976562 1467.871094 1379.851562 1467.871094 L 1373.160156 1467.871094 L 1373.160156 1382.351562 L 1373.421875 1382.351562 C 1374.5625 1382.351562 1375.492188 1381.429688 1375.492188 1380.300781 C 1375.492188 1379.160156 1374.5625 1378.242188 1373.421875 1378.242188 L 1366.980469 1378.242188 L 1366.980469 1243.503906 L 1374.757812 1243.503906 L 1351.722656 1203.632812 L 1353.453125 1203.632812 C 1354.578125 1203.632812 1355.496094 1202.710938 1355.496094 1201.574219 C 1355.496094 1200.433594 1354.578125 1199.523438 1353.453125 1199.523438 L 1351.421875 1199.523438 L 1351.421875 1179.632812 L 1353.453125 1179.632812 C 1354.578125 1179.632812 1355.496094 1178.710938 1355.496094 1177.582031 C 1355.496094 1176.441406 1354.578125 1175.511719 1353.453125 1175.511719 L 1346.289062 1175.511719 L 1346.289062 1168.953125 L 1327.601562 1168.953125 L 1327.601562 1175.511719 L 1320.4375 1175.511719 C 1319.3125 1175.511719 1318.382812 1176.441406 1318.382812 1177.582031 C 1318.382812 1178.710938 1319.3125 1179.632812 1320.4375 1179.632812 L 1322.453125 1179.632812 L 1322.453125 1199.523438 L 1320.4375 1199.523438 C 1319.3125 1199.523438 1318.382812 1200.433594 1318.382812 1201.574219 C 1318.382812 1202.710938 1319.3125 1203.632812 1320.4375 1203.632812 L 1322.167969 1203.632812 L 1299.125 1243.503906 L 1306.917969 1243.503906 L 1306.917969 1378.242188 L 1300.457031 1378.242188 C 1299.324219 1378.242188 1298.40625 1379.160156 1298.40625 1380.300781 C 1298.40625 1381.429688 1299.324219 1382.351562 1300.457031 1382.351562 L 1300.726562 1382.351562 L 1300.726562 1467.871094 L 1294.035156 1467.871094 C 1292.90625 1467.871094 1291.984375 1468.792969 1291.984375 1469.921875 C 1291.984375 1471.050781 1292.90625 1471.96875 1294.035156 1471.96875 L 1294.707031 1471.96875 L 1294.707031 1493.832031 L 1288.996094 1493.832031 L 1288.996094 1409.152344 L 1289.585938 1409.152344 C 1290.566406 1409.152344 1291.367188 1408.351562 1291.367188 1407.371094 C 1291.367188 1406.371094 1290.566406 1405.570312 1289.585938 1405.570312 L 1191.605469 1405.570312 C 1190.617188 1405.570312 1189.828125 1406.371094 1189.828125 1407.371094 C 1189.828125 1408.351562 1190.617188 1409.152344 1191.605469 1409.152344 L 1192.1875 1409.152344 L 1192.1875 1493.832031 L 1177.195312 1493.832031 L 1177.195312 1409.152344 L 1177.765625 1409.152344 C 1178.757812 1409.152344 1179.554688 1408.351562 1179.554688 1407.371094 C 1179.554688 1406.371094 1178.757812 1405.570312 1177.765625 1405.570312 L 1168.136719 1405.570312 L 1168.136719 1358.78125 L 1168.597656 1358.78125 C 1169.40625 1358.78125 1170.046875 1358.121094 1170.046875 1357.320312 C 1170.046875 1356.519531 1169.40625 1355.871094 1168.597656 1355.871094 L 1158.097656 1355.871094 L 1158.097656 1324.203125 L 1158.445312 1324.203125 C 1159.035156 1324.203125 1159.527344 1323.722656 1159.527344 1323.121094 C 1159.527344 1322.523438 1159.035156 1322.042969 1158.445312 1322.042969 L 1151.394531 1322.042969 C 1150.65625 1310.171875 1140.835938 1300.773438 1128.789062 1300.773438 C 1116.738281 1300.773438 1106.917969 1310.171875 1106.1875 1322.042969 L 1099.136719 1322.042969 C 1098.539062 1322.042969 1098.054688 1322.523438 1098.054688 1323.121094 C 1098.054688 1323.722656 1098.539062 1324.203125 1099.136719 1324.203125 L 1099.488281 1324.203125 L 1099.488281 1355.871094 L 1088.976562 1355.871094 C 1088.175781 1355.871094 1087.539062 1356.519531 1087.539062 1357.320312 C 1087.539062 1358.121094 1088.175781 1358.78125 1088.976562 1358.78125 L 1089.445312 1358.78125 L 1089.445312 1405.570312 L 1079.808594 1405.570312 C 1078.804688 1405.570312 1078.015625 1406.371094 1078.015625 1407.371094 C 1078.015625 1408.351562 1078.804688 1409.152344 1079.808594 1409.152344 L 1080.375 1409.152344 L 1080.375 1493.832031 L 1072.457031 1493.832031 C 1071.328125 1493.832031 1070.40625 1494.75 1070.40625 1495.882812 C 1070.40625 1497.011719 1071.328125 1497.929688 1072.457031 1497.929688 L 1073.128906 1497.929688 L 1073.128906 1561.300781 L 1066.226562 1561.300781 L 1066.226562 1520.222656 L 1055.277344 1520.222656 L 1055.277344 1449.039062 L 1043.40625 1449.039062 L 1043.40625 1383.332031 L 999.957031 1414.3125 L 999.957031 1449.039062 L 988.089844 1449.039062 L 988.089844 1520.222656 L 977.132812 1520.222656 L 977.132812 1561.300781 L 970.347656 1561.300781 L 970.347656 1659.671875 L 2132.9375 1659.671875 L 2132.9375 1236.792969 L 2133.328125 1236.792969 C 2133.996094 1236.792969 2134.535156 1236.253906 2134.535156 1235.582031 C 2134.535156 1234.921875 2133.996094 1234.382812 2133.328125 1234.382812" fill="#a42428"/></g><g id="change2_3"><path d="M 591.375 1308.640625 L 591.59375 1308.640625 L 591.59375 1331.101562 L 628.441406 1331.101562 L 628.441406 1308.640625 L 628.667969 1308.640625 L 629.34375 1307.960938 L 628.667969 1307.269531 L 624.230469 1307.269531 C 623.769531 1299.820312 617.601562 1293.910156 610.027344 1293.910156 C 602.445312 1293.910156 596.273438 1299.820312 595.804688 1307.269531 L 591.375 1307.269531 L 590.699219 1307.960938 L 591.375 1308.640625" fill="#8e1e21"/></g><g id="change2_4"><path d="M 1083.898438 1386.730469 L 1082.960938 1386.730469 L 1082.960938 1378.621094 L 1083.488281 1378.621094 L 1083.898438 1378.539062 Z M 981.136719 1370.140625 L 967.632812 1370.359375 L 967.632812 1358.359375 C 969.53125 1359.738281 971.859375 1360.570312 974.386719 1360.570312 C 976.90625 1360.570312 979.234375 1359.738281 981.136719 1358.359375 Z M 1241.640625 1359.03125 L 1215.550781 1359.03125 L 1215.550781 1297.199219 L 1216.171875 1297.199219 C 1217.199219 1297.199219 1218.050781 1296.371094 1218.050781 1295.308594 C 1218.050781 1294.28125 1217.199219 1293.441406 1216.171875 1293.441406 L 1212.121094 1293.441406 L 1212.121094 1269.691406 L 1215.398438 1269.691406 L 1210.238281 1238.160156 L 1158.078125 1238.160156 L 1152.921875 1269.691406 L 1156.191406 1269.691406 L 1156.191406 1293.441406 L 1152.140625 1293.441406 C 1151.109375 1293.441406 1150.261719 1294.28125 1150.261719 1295.308594 C 1150.261719 1296.371094 1151.109375 1297.199219 1152.140625 1297.199219 L 1152.761719 1297.199219 L 1152.761719 1430.539062 L 1140.058594 1430.539062 L 1140.058594 1389.679688 L 1140.539062 1389.679688 C 1141.351562 1389.679688 1142.011719 1389.011719 1142.011719 1388.199219 C 1142.011719 1387.390625 1141.351562 1386.730469 1140.539062 1386.730469 L 1135.761719 1386.730469 L 1135.761719 1325.511719 L 1135.949219 1325.511719 C 1136.769531 1325.511719 1137.410156 1324.851562 1137.410156 1324.039062 C 1137.410156 1323.21875 1136.769531 1322.578125 1135.949219 1322.578125 L 1083.710938 1322.578125 C 1082.890625 1322.578125 1082.238281 1323.21875 1082.238281 1324.039062 C 1082.238281 1324.851562 1082.890625 1325.511719 1083.710938 1325.511719 L 1083.898438 1325.511719 L 1083.898438 1375.480469 L 1083.488281 1375.410156 L 1078.25 1375.410156 L 1078.25 1308.480469 L 1078.46875 1308.480469 C 1079.351562 1308.480469 1080.070312 1307.761719 1080.070312 1306.871094 C 1080.070312 1305.980469 1079.351562 1305.269531 1078.46875 1305.269531 L 1073.421875 1305.269531 L 1073.421875 1276.75 L 1079.5 1276.75 L 1060.839844 1244.441406 L 1038.980469 1244.441406 L 1020.328125 1276.75 L 1026.410156 1276.75 L 1026.410156 1305.269531 L 1021.359375 1305.269531 C 1020.46875 1305.269531 1019.75 1305.980469 1019.75 1306.871094 C 1019.75 1307.761719 1020.46875 1308.480469 1021.359375 1308.480469 L 1021.570312 1308.480469 L 1021.570312 1375.410156 L 1016.339844 1375.410156 C 1015.460938 1375.410156 1014.730469 1376.121094 1014.730469 1377.011719 C 1014.730469 1377.898438 1015.460938 1378.621094 1016.339844 1378.621094 L 1016.859375 1378.621094 L 1016.859375 1408.53125 L 1002 1408.53125 L 1002 1369.800781 L 982.027344 1370.128906 L 982.027344 1357.628906 C 984.371094 1355.519531 985.859375 1352.488281 985.859375 1349.101562 C 985.859375 1342.75 980.722656 1337.609375 974.386719 1337.609375 C 968.039062 1337.609375 962.910156 1342.75 962.910156 1349.101562 C 962.910156 1352.5 964.390625 1355.539062 966.738281 1357.628906 L 966.738281 1370.378906 L 949.605469 1370.660156 L 949.605469 1408.53125 L 937.730469 1408.53125 L 937.730469 1383.519531 L 935.871094 1383.519531 L 935.871094 1408.53125 L 923.675781 1408.53125 L 923.675781 1398.628906 L 893.4375 1381.398438 L 893.4375 1341.339844 L 890.640625 1341.339844 L 890.640625 1379.820312 L 871.355469 1368.839844 L 871.355469 1318.800781 L 871.671875 1318.800781 C 872.199219 1318.800781 872.632812 1318.359375 872.632812 1317.828125 C 872.632812 1317.300781 872.199219 1316.859375 871.671875 1316.859375 L 818.640625 1316.859375 C 818.101562 1316.859375 817.671875 1317.300781 817.671875 1317.828125 C 817.671875 1318.359375 818.101562 1318.800781 818.640625 1318.800781 L 818.953125 1318.800781 L 818.953125 1399.128906 L 809.058594 1399.128906 L 809.058594 1309.429688 L 809.859375 1309.429688 C 811.222656 1309.429688 812.316406 1308.308594 812.316406 1306.960938 C 812.316406 1305.601562 811.222656 1304.5 809.859375 1304.5 L 804.578125 1304.5 L 804.578125 1259.019531 L 808.851562 1259.019531 L 802.113281 1242.820312 L 784.667969 1242.820312 L 784.667969 1221.988281 L 786.988281 1221.988281 C 788.289062 1221.988281 789.347656 1220.941406 789.347656 1219.628906 C 789.347656 1218.339844 788.289062 1217.28125 786.988281 1217.28125 L 778.753906 1217.28125 L 778.753906 1202.050781 L 780.242188 1202.050781 C 781.09375 1202.050781 781.769531 1201.371094 781.769531 1200.519531 C 781.769531 1199.679688 781.09375 1199 780.242188 1199 L 769.058594 1199 L 769.058594 1157.71875 L 766.960938 1157.71875 L 766.960938 1199 L 755.769531 1199 C 754.933594 1199 754.246094 1199.679688 754.246094 1200.519531 C 754.246094 1201.371094 754.933594 1202.050781 755.769531 1202.050781 L 757.261719 1202.050781 L 757.261719 1217.28125 L 749.027344 1217.28125 C 747.726562 1217.28125 746.667969 1218.339844 746.667969 1219.628906 C 746.667969 1220.941406 747.726562 1221.988281 749.027344 1221.988281 L 751.351562 1221.988281 L 751.351562 1242.820312 L 733.90625 1242.820312 L 727.15625 1259.019531 L 731.4375 1259.019531 L 731.4375 1304.5 L 726.148438 1304.5 C 724.792969 1304.5 723.691406 1305.601562 723.691406 1306.960938 C 723.691406 1308.308594 724.792969 1309.429688 726.148438 1309.429688 L 726.953125 1309.429688 L 726.953125 1383.75 L 716.382812 1383.75 C 716.179688 1383.128906 715.628906 1382.679688 714.949219 1382.679688 L 711.691406 1382.679688 L 711.691406 1363.550781 L 714.328125 1363.550781 L 710.179688 1338.148438 L 668.15625 1338.148438 L 664.011719 1363.550781 L 666.640625 1363.550781 L 666.640625 1382.679688 L 663.386719 1382.679688 C 662.707031 1382.679688 662.160156 1383.128906 661.964844 1383.75 L 643.511719 1383.75 L 643.511719 1417.878906 L 640.460938 1417.878906 L 640.460938 1364.640625 L 640.820312 1364.640625 C 641.445312 1364.640625 641.945312 1364.140625 641.945312 1363.519531 C 641.945312 1362.898438 641.445312 1362.398438 640.820312 1362.398438 L 634.75 1362.398438 L 634.75 1332.96875 L 635.050781 1332.96875 C 635.558594 1332.96875 635.960938 1332.558594 635.960938 1332.058594 C 635.960938 1331.550781 635.558594 1331.140625 635.050781 1331.140625 L 584.984375 1331.140625 C 584.480469 1331.140625 584.074219 1331.550781 584.074219 1332.058594 C 584.074219 1332.558594 584.480469 1332.96875 584.984375 1332.96875 L 585.289062 1332.96875 L 585.289062 1362.398438 L 579.222656 1362.398438 C 578.601562 1362.398438 578.097656 1362.898438 578.097656 1363.519531 C 578.097656 1364.140625 578.601562 1364.640625 579.222656 1364.640625 L 579.582031 1364.640625 L 579.582031 1417.878906 L 574.601562 1417.878906 C 573.890625 1417.878906 573.3125 1418.449219 573.3125 1419.171875 C 573.3125 1419.890625 573.890625 1420.46875 574.601562 1420.46875 L 575.023438 1420.46875 L 575.023438 1460.289062 L 570.6875 1460.289062 L 570.6875 1236.511719 L 523.546875 1236.511719 L 523.546875 1505.589844 L 1241.390625 1505.589844 L 1241.390625 1360.550781 L 1241.640625 1360.550781 L 1242.390625 1359.789062 L 1241.640625 1359.03125" fill="#8e1e21"/></g><g id="change3_2"><path d="M 489.253906 1431.238281 L 489.910156 1431.378906 L 490.738281 1431.378906 L 490.738281 1444.300781 L 489.253906 1444.300781 Z M 943.300781 1454 C 946.3125 1456.199219 950.015625 1457.519531 954.03125 1457.519531 C 958.046875 1457.519531 961.742188 1456.199219 964.761719 1454 L 964.761719 1463.988281 L 943.300781 1463.988281 Z M 237.179688 1235.578125 C 237.179688 1236.25 237.71875 1236.789062 238.390625 1236.789062 L 238.78125 1236.789062 L 238.78125 1659.671875 L 1401.371094 1659.671875 L 1401.371094 1561.300781 L 1394.578125 1561.300781 L 1394.578125 1520.21875 L 1383.628906 1520.21875 L 1383.628906 1449.039062 L 1371.761719 1449.039062 L 1371.761719 1414.308594 L 1328.300781 1383.328125 L 1328.300781 1449.039062 L 1316.441406 1449.039062 L 1316.441406 1520.21875 L 1305.488281 1520.21875 L 1305.488281 1561.300781 L 1298.578125 1561.300781 L 1298.578125 1497.929688 L 1299.261719 1497.929688 C 1300.390625 1497.929688 1301.308594 1497.011719 1301.308594 1495.878906 C 1301.308594 1494.75 1300.390625 1493.828125 1299.261719 1493.828125 L 1291.328125 1493.828125 L 1291.328125 1409.148438 L 1291.910156 1409.148438 C 1292.898438 1409.148438 1293.699219 1408.351562 1293.699219 1407.371094 C 1293.699219 1406.371094 1292.898438 1405.570312 1291.910156 1405.570312 L 1282.269531 1405.570312 L 1282.269531 1358.78125 L 1282.730469 1358.78125 C 1283.539062 1358.78125 1284.179688 1358.121094 1284.179688 1357.320312 C 1284.179688 1356.519531 1283.539062 1355.871094 1282.730469 1355.871094 L 1272.230469 1355.871094 L 1272.230469 1324.199219 L 1272.578125 1324.199219 C 1273.179688 1324.199219 1273.660156 1323.71875 1273.660156 1323.121094 C 1273.660156 1322.519531 1273.179688 1322.039062 1272.578125 1322.039062 L 1265.53125 1322.039062 C 1264.800781 1310.171875 1254.96875 1300.769531 1242.929688 1300.769531 C 1230.878906 1300.769531 1221.058594 1310.171875 1220.320312 1322.039062 L 1213.28125 1322.039062 C 1212.671875 1322.039062 1212.191406 1322.519531 1212.191406 1323.121094 C 1212.191406 1323.71875 1212.671875 1324.199219 1213.28125 1324.199219 L 1213.621094 1324.199219 L 1213.621094 1355.871094 L 1203.121094 1355.871094 C 1202.320312 1355.871094 1201.671875 1356.519531 1201.671875 1357.320312 C 1201.671875 1358.121094 1202.320312 1358.78125 1203.121094 1358.78125 L 1203.578125 1358.78125 L 1203.578125 1405.570312 L 1193.949219 1405.570312 C 1192.949219 1405.570312 1192.148438 1406.371094 1192.148438 1407.371094 C 1192.148438 1408.351562 1192.949219 1409.148438 1193.949219 1409.148438 L 1194.519531 1409.148438 L 1194.519531 1493.828125 L 1179.53125 1493.828125 L 1179.53125 1409.148438 L 1180.101562 1409.148438 C 1181.101562 1409.148438 1181.898438 1408.351562 1181.898438 1407.371094 C 1181.898438 1406.371094 1181.101562 1405.570312 1180.101562 1405.570312 L 1082.128906 1405.570312 C 1081.148438 1405.570312 1080.339844 1406.371094 1080.339844 1407.371094 C 1080.339844 1408.351562 1081.148438 1409.148438 1082.128906 1409.148438 L 1082.710938 1409.148438 L 1082.710938 1493.828125 L 1077.011719 1493.828125 L 1077.011719 1471.96875 L 1077.679688 1471.96875 C 1078.800781 1471.96875 1079.730469 1471.050781 1079.730469 1469.921875 C 1079.730469 1468.789062 1078.800781 1467.871094 1077.679688 1467.871094 L 1070.988281 1467.871094 L 1070.988281 1382.351562 L 1071.261719 1382.351562 C 1072.390625 1382.351562 1073.308594 1381.429688 1073.308594 1380.300781 C 1073.308594 1379.160156 1072.390625 1378.238281 1071.261719 1378.238281 L 1064.800781 1378.238281 L 1064.800781 1243.5 L 1072.578125 1243.5 L 1049.550781 1203.628906 L 1051.28125 1203.628906 C 1052.410156 1203.628906 1053.328125 1202.710938 1053.328125 1201.570312 C 1053.328125 1200.429688 1052.410156 1199.519531 1051.28125 1199.519531 L 1049.261719 1199.519531 L 1049.261719 1179.628906 L 1051.28125 1179.628906 C 1052.410156 1179.628906 1053.328125 1178.710938 1053.328125 1177.578125 C 1053.328125 1176.441406 1052.410156 1175.511719 1051.28125 1175.511719 L 1044.121094 1175.511719 L 1044.121094 1168.949219 L 1025.429688 1168.949219 L 1025.429688 1175.511719 L 1018.269531 1175.511719 C 1017.140625 1175.511719 1016.210938 1176.441406 1016.210938 1177.578125 C 1016.210938 1178.710938 1017.140625 1179.628906 1018.269531 1179.628906 L 1020.28125 1179.628906 L 1020.28125 1199.519531 L 1018.269531 1199.519531 C 1017.140625 1199.519531 1016.210938 1200.429688 1016.210938 1201.570312 C 1016.210938 1202.710938 1017.140625 1203.628906 1018.269531 1203.628906 L 1019.988281 1203.628906 L 996.953125 1243.5 L 1004.738281 1243.5 L 1004.738281 1378.238281 L 998.28125 1378.238281 C 997.148438 1378.238281 996.230469 1379.160156 996.230469 1380.300781 C 996.230469 1381.429688 997.148438 1382.351562 998.28125 1382.351562 L 998.554688 1382.351562 L 998.554688 1467.871094 L 991.871094 1467.871094 C 990.738281 1467.871094 989.8125 1468.789062 989.8125 1469.921875 C 989.8125 1471.050781 990.738281 1471.96875 991.871094 1471.96875 L 992.542969 1471.96875 L 992.542969 1530.058594 L 987.5625 1530.058594 L 987.5625 1466.660156 L 988 1466.660156 C 988.734375 1466.660156 989.339844 1466.058594 989.339844 1465.328125 C 989.339844 1464.589844 988.734375 1463.988281 988 1463.988281 L 966.195312 1463.988281 L 966.195312 1452.851562 C 969.921875 1449.511719 972.285156 1444.660156 972.285156 1439.261719 C 972.285156 1429.179688 964.113281 1421.011719 954.03125 1421.011719 C 943.949219 1421.011719 935.78125 1429.179688 935.78125 1439.261719 C 935.78125 1444.660156 938.140625 1449.511719 941.867188 1452.851562 L 941.867188 1463.988281 L 914.652344 1463.988281 C 913.910156 1463.988281 913.3125 1464.589844 913.3125 1465.328125 C 913.3125 1466.058594 913.910156 1466.660156 914.652344 1466.660156 L 915.089844 1466.660156 L 915.089844 1530.058594 L 910.632812 1530.058594 L 910.632812 1219.511719 L 911.136719 1219.511719 C 911.984375 1219.511719 912.671875 1218.828125 912.671875 1217.96875 C 912.671875 1217.121094 911.984375 1216.441406 911.136719 1216.441406 L 898.0625 1216.441406 L 898.0625 1035.808594 L 836.003906 1035.808594 L 836.003906 1216.441406 L 826.796875 1216.441406 C 825.945312 1216.441406 825.261719 1217.121094 825.261719 1217.96875 C 825.261719 1218.828125 825.945312 1219.511719 826.796875 1219.511719 L 827.296875 1219.511719 L 827.296875 1415.820312 L 800.191406 1431.25 L 800.191406 1416.019531 L 787.375 1416.019531 L 787.375 1394.910156 L 785.554688 1394.910156 L 785.554688 1416.019531 L 760.941406 1416.019531 L 760.941406 1394.910156 L 759.125 1394.910156 L 759.125 1416.019531 L 747.851562 1416.019531 L 747.851562 1461.058594 L 744.082031 1463.199219 L 744.082031 1478.960938 L 702.839844 1478.960938 L 702.839844 1418.71875 L 619.503906 1417.359375 L 619.503906 1478.960938 L 595.867188 1478.960938 L 595.867188 1431.378906 L 596.695312 1431.378906 C 598.113281 1431.378906 599.253906 1430.238281 599.253906 1428.820312 C 599.253906 1427.410156 598.113281 1426.269531 596.695312 1426.269531 L 588.386719 1426.269531 L 588.386719 1319.839844 L 588.722656 1319.839844 C 590.132812 1319.839844 591.277344 1318.691406 591.277344 1317.269531 C 591.277344 1315.859375 590.132812 1314.71875 588.722656 1314.71875 L 580.683594 1314.71875 L 580.683594 1269.359375 L 590.367188 1269.359375 L 560.695312 1217.96875 L 525.921875 1217.96875 L 496.246094 1269.359375 L 505.933594 1269.359375 L 505.933594 1314.71875 L 497.898438 1314.71875 C 496.480469 1314.71875 495.34375 1315.859375 495.34375 1317.269531 C 495.34375 1318.691406 496.480469 1319.839844 497.898438 1319.839844 L 498.234375 1319.839844 L 498.234375 1426.269531 L 489.910156 1426.269531 L 489.253906 1426.398438 L 489.253906 1346.921875 L 489.5625 1346.921875 C 490.855469 1346.921875 491.898438 1345.871094 491.898438 1344.578125 C 491.898438 1343.289062 490.855469 1342.238281 489.5625 1342.238281 L 406.472656 1342.238281 C 405.175781 1342.238281 404.128906 1343.289062 404.128906 1344.578125 C 404.128906 1345.871094 405.175781 1346.921875 406.472656 1346.921875 L 406.777344 1346.921875 L 406.777344 1444.300781 L 399.167969 1444.300781 C 397.875 1444.300781 396.835938 1445.339844 396.835938 1446.628906 C 396.835938 1447.921875 397.875 1448.980469 399.167969 1448.980469 L 399.9375 1448.980469 L 399.9375 1513.949219 L 368.675781 1513.949219 L 368.675781 1501.671875 L 303.769531 1298.851562 L 303.769531 1236.789062 L 304.164062 1236.789062 C 304.820312 1236.789062 305.355469 1236.25 305.355469 1235.578125 C 305.355469 1234.921875 304.820312 1234.378906 304.164062 1234.378906 L 238.390625 1234.378906 C 237.71875 1234.378906 237.179688 1234.921875 237.179688 1235.578125" fill="#a42428"/></g><g id="change3_3"><path d="M 511.734375 966.027344 L 511.480469 966.027344 L 503.699219 958.835938 L 511.734375 958.835938 C 512.769531 958.835938 513.605469 958.003906 513.605469 956.96875 C 513.605469 955.933594 512.769531 955.097656 511.734375 955.097656 L 510.890625 955.097656 L 495.234375 939.429688 L 487.625 939.429688 L 477.757812 890.859375 L 471.316406 890.859375 L 471.316406 876.078125 L 464.832031 876.078125 L 464.832031 870.78125 C 464.832031 866.269531 462.773438 862.21875 459.542969 859.53125 L 440.894531 859.53125 C 437.667969 862.21875 435.609375 866.269531 435.609375 870.78125 L 435.609375 876.078125 L 429.121094 876.078125 L 429.121094 890.859375 L 422.675781 890.859375 L 412.816406 939.429688 L 405.207031 939.429688 L 389.554688 955.097656 L 388.703125 955.097656 C 387.675781 955.097656 386.835938 955.933594 386.835938 956.96875 C 386.835938 958.003906 387.675781 958.835938 388.703125 958.835938 L 396.742188 958.835938 L 388.953125 966.027344 L 388.703125 966.027344 C 387.675781 966.027344 386.835938 966.859375 386.835938 967.894531 C 386.835938 968.933594 387.675781 969.761719 388.703125 969.761719 L 392.097656 969.761719 L 396.03125 1000.089844 L 397.609375 1012.300781 L 402.175781 1047.519531 L 423.574219 1047.519531 C 422.507812 1047.898438 421.734375 1048.890625 421.734375 1050.078125 L 421.734375 1076.398438 C 421.734375 1077.898438 422.953125 1079.128906 424.46875 1079.128906 L 434.566406 1079.128906 L 434.566406 1457.171875 L 465.867188 1457.171875 L 465.867188 1079.128906 L 475.96875 1079.128906 C 477.480469 1079.128906 478.707031 1077.898438 478.707031 1076.398438 L 478.707031 1050.078125 C 478.707031 1048.890625 477.933594 1047.898438 476.863281 1047.519531 L 498.269531 1047.519531 L 502.832031 1012.300781 L 504.40625 1000.089844 L 508.339844 969.761719 L 511.734375 969.761719 C 512.769531 969.761719 513.605469 968.933594 513.605469 967.894531 C 513.605469 966.859375 512.769531 966.027344 511.734375 966.027344" fill="#a42428"/></g><g id="change3_4"><path d="M 1937.832031 1034.320312 L 1940.535156 1034.320312 L 1940.535156 1037.679688 L 1937.832031 1037.679688 Z M 1940.535156 1015.449219 L 1940.535156 1019.707031 L 1937.832031 1019.707031 L 1937.832031 1015.449219 Z M 1937.832031 1009.148438 L 1940.535156 1009.148438 L 1940.535156 1013.417969 L 1937.832031 1013.417969 Z M 1937.832031 1002.867188 L 1940.535156 1002.867188 L 1940.535156 1007.128906 L 1937.832031 1007.128906 Z M 1937.832031 996.578125 L 1940.535156 996.578125 L 1940.535156 1000.839844 L 1937.832031 1000.839844 Z M 1937.832031 990.285156 L 1940.535156 990.285156 L 1940.535156 994.554688 L 1937.832031 994.554688 Z M 1937.832031 984.21875 L 1937.832031 980.25 L 1940.535156 980.25 L 1940.535156 988.265625 L 1937.832031 988.265625 Z M 1937.832031 973.886719 L 1940.535156 973.886719 L 1940.535156 978.226562 L 1937.832031 978.226562 Z M 1937.832031 967.523438 L 1940.535156 967.523438 L 1940.535156 971.871094 L 1937.832031 971.871094 Z M 1937.832031 961.15625 L 1940.535156 961.15625 L 1940.535156 965.5 L 1937.832031 965.5 Z M 1937.832031 954.804688 L 1940.535156 954.804688 L 1940.535156 959.132812 L 1937.832031 959.132812 Z M 1937.832031 948.429688 L 1940.535156 948.429688 L 1940.535156 952.777344 L 1937.832031 952.777344 Z M 1937.832031 942.0625 L 1940.535156 942.0625 L 1940.535156 946.414062 L 1937.832031 946.414062 Z M 1937.832031 935.699219 L 1940.535156 935.699219 L 1940.535156 940.046875 L 1937.832031 940.046875 Z M 1937.832031 930.765625 L 1940.535156 930.765625 L 1940.535156 933.679688 L 1937.832031 933.679688 Z M 1949.960938 933.679688 L 1947.269531 933.679688 L 1947.269531 930.765625 L 1949.960938 930.765625 Z M 1949.960938 940.046875 L 1947.269531 940.046875 L 1947.269531 935.699219 L 1949.960938 935.699219 Z M 1949.960938 946.414062 L 1947.269531 946.414062 L 1947.269531 942.0625 L 1949.960938 942.0625 Z M 1949.960938 952.777344 L 1947.269531 952.777344 L 1947.269531 948.429688 L 1949.960938 948.429688 Z M 1949.960938 959.132812 L 1947.269531 959.132812 L 1947.269531 954.804688 L 1949.960938 954.804688 Z M 1949.960938 965.5 L 1947.269531 965.5 L 1947.269531 961.15625 L 1949.960938 961.15625 Z M 1949.960938 971.871094 L 1947.269531 971.871094 L 1947.269531 967.523438 L 1949.960938 967.523438 Z M 1949.960938 978.226562 L 1947.269531 978.226562 L 1947.269531 973.886719 L 1949.960938 973.886719 Z M 1949.960938 984.21875 L 1949.960938 988.265625 L 1947.269531 988.265625 L 1947.269531 980.25 L 1949.960938 980.25 Z M 1949.960938 994.554688 L 1947.269531 994.554688 L 1947.269531 990.285156 L 1949.960938 990.285156 Z M 1949.960938 1000.839844 L 1947.269531 1000.839844 L 1947.269531 996.578125 L 1949.960938 996.578125 Z M 1949.960938 1007.128906 L 1947.269531 1007.128906 L 1947.269531 1002.867188 L 1949.960938 1002.867188 Z M 1949.960938 1013.417969 L 1947.269531 1013.417969 L 1947.269531 1009.148438 L 1949.960938 1009.148438 Z M 1949.960938 1019.707031 L 1947.269531 1019.707031 L 1947.269531 1015.449219 L 1949.960938 1015.449219 Z M 1949.960938 1025.988281 L 1947.269531 1025.988281 L 1947.269531 1021.730469 L 1949.960938 1021.730469 Z M 1949.960938 1032.289062 L 1947.269531 1032.289062 L 1947.269531 1028.007812 L 1949.960938 1028.007812 Z M 1949.960938 1037.679688 L 1947.269531 1037.679688 L 1947.269531 1034.320312 L 1949.960938 1034.320312 Z M 1942.554688 1028.007812 L 1945.246094 1028.007812 L 1945.246094 1032.289062 L 1942.554688 1032.289062 Z M 1937.832031 1028.007812 L 1940.535156 1028.007812 L 1940.535156 1032.289062 L 1937.832031 1032.289062 Z M 1945.246094 1021.730469 L 1945.246094 1025.988281 L 1942.554688 1025.988281 L 1942.554688 1021.730469 Z M 1945.246094 1015.449219 L 1945.246094 1019.707031 L 1942.554688 1019.707031 L 1942.554688 1015.449219 Z M 1945.246094 1009.148438 L 1945.246094 1013.417969 L 1942.554688 1013.417969 L 1942.554688 1009.148438 Z M 1945.246094 1002.867188 L 1945.246094 1007.128906 L 1942.554688 1007.128906 L 1942.554688 1002.867188 Z M 1945.246094 996.578125 L 1945.246094 1000.839844 L 1942.554688 1000.839844 L 1942.554688 996.578125 Z M 1945.246094 990.285156 L 1945.246094 994.554688 L 1942.554688 994.554688 L 1942.554688 990.285156 Z M 1945.246094 973.886719 L 1945.246094 978.226562 L 1942.554688 978.226562 L 1942.554688 973.886719 Z M 1945.246094 967.523438 L 1945.246094 971.871094 L 1942.554688 971.871094 L 1942.554688 967.523438 Z M 1945.246094 961.15625 L 1945.246094 965.5 L 1942.554688 965.5 L 1942.554688 961.15625 Z M 1945.246094 954.804688 L 1945.246094 959.132812 L 1942.554688 959.132812 L 1942.554688 954.804688 Z M 1945.246094 948.429688 L 1945.246094 952.777344 L 1942.554688 952.777344 L 1942.554688 948.429688 Z M 1945.246094 942.0625 L 1945.246094 946.414062 L 1942.554688 946.414062 L 1942.554688 942.0625 Z M 1945.246094 935.699219 L 1945.246094 940.046875 L 1942.554688 940.046875 L 1942.554688 935.699219 Z M 1945.246094 933.679688 L 1942.554688 933.679688 L 1942.554688 930.765625 L 1945.246094 930.765625 Z M 1942.554688 980.25 L 1945.246094 980.25 L 1945.246094 988.265625 L 1942.554688 988.265625 Z M 1937.832031 1021.730469 L 1940.535156 1021.730469 L 1940.535156 1025.988281 L 1937.832031 1025.988281 Z M 1942.554688 1034.320312 L 1945.246094 1034.320312 L 1945.246094 1037.679688 L 1942.554688 1037.679688 Z M 1939.816406 923.988281 L 1941.617188 923.988281 L 1941.617188 926.265625 L 1939.816406 926.265625 Z M 1941.617188 911.269531 L 1941.617188 914.140625 L 1939.816406 914.140625 L 1939.816406 911.269531 Z M 1939.816406 907.027344 L 1941.617188 907.027344 L 1941.617188 909.914062 L 1939.816406 909.914062 Z M 1939.816406 902.789062 L 1941.617188 902.789062 L 1941.617188 905.65625 L 1939.816406 905.65625 Z M 1939.816406 898.546875 L 1941.617188 898.546875 L 1941.617188 901.421875 L 1939.816406 901.421875 Z M 1939.816406 894.308594 L 1941.617188 894.308594 L 1941.617188 897.179688 L 1939.816406 897.179688 Z M 1939.816406 890.214844 L 1939.816406 887.542969 L 1941.617188 887.542969 L 1941.617188 892.9375 L 1939.816406 892.9375 Z M 1939.816406 883.25 L 1941.617188 883.25 L 1941.617188 886.175781 L 1939.816406 886.175781 Z M 1939.816406 878.945312 L 1941.617188 878.945312 L 1941.617188 881.882812 L 1939.816406 881.882812 Z M 1939.816406 874.660156 L 1941.617188 874.660156 L 1941.617188 877.589844 L 1939.816406 877.589844 Z M 1939.816406 870.367188 L 1941.617188 870.367188 L 1941.617188 873.292969 L 1939.816406 873.292969 Z M 1939.816406 866.085938 L 1941.617188 866.085938 L 1941.617188 869.011719 L 1939.816406 869.011719 Z M 1939.816406 861.789062 L 1941.617188 861.789062 L 1941.617188 864.71875 L 1939.816406 864.71875 Z M 1939.816406 857.496094 L 1941.617188 857.496094 L 1941.617188 860.417969 L 1939.816406 860.417969 Z M 1939.816406 854.160156 L 1941.617188 854.160156 L 1941.617188 856.128906 L 1939.816406 856.128906 Z M 1947.988281 856.128906 L 1946.160156 856.128906 L 1946.160156 854.160156 L 1947.988281 854.160156 Z M 1947.988281 860.417969 L 1946.160156 860.417969 L 1946.160156 857.496094 L 1947.988281 857.496094 Z M 1947.988281 864.71875 L 1946.160156 864.71875 L 1946.160156 861.789062 L 1947.988281 861.789062 Z M 1947.988281 869.011719 L 1946.160156 869.011719 L 1946.160156 866.085938 L 1947.988281 866.085938 Z M 1947.988281 873.292969 L 1946.160156 873.292969 L 1946.160156 870.367188 L 1947.988281 870.367188 Z M 1947.988281 877.589844 L 1946.160156 877.589844 L 1946.160156 874.660156 L 1947.988281 874.660156 Z M 1947.988281 881.882812 L 1946.160156 881.882812 L 1946.160156 878.945312 L 1947.988281 878.945312 Z M 1947.988281 886.175781 L 1946.160156 886.175781 L 1946.160156 883.25 L 1947.988281 883.25 Z M 1947.988281 890.214844 L 1947.988281 892.9375 L 1946.160156 892.9375 L 1946.160156 887.542969 L 1947.988281 887.542969 Z M 1947.988281 897.179688 L 1946.160156 897.179688 L 1946.160156 894.308594 L 1947.988281 894.308594 Z M 1947.988281 901.421875 L 1946.160156 901.421875 L 1946.160156 898.546875 L 1947.988281 898.546875 Z M 1947.988281 905.65625 L 1946.160156 905.65625 L 1946.160156 902.789062 L 1947.988281 902.789062 Z M 1947.988281 909.914062 L 1946.160156 909.914062 L 1946.160156 907.027344 L 1947.988281 907.027344 Z M 1947.988281 914.140625 L 1946.160156 914.140625 L 1946.160156 911.269531 L 1947.988281 911.269531 Z M 1947.988281 918.382812 L 1946.160156 918.382812 L 1946.160156 915.507812 L 1947.988281 915.507812 Z M 1947.988281 922.632812 L 1946.160156 922.632812 L 1946.160156 919.75 L 1947.988281 919.75 Z M 1947.988281 926.265625 L 1946.160156 926.265625 L 1946.160156 923.988281 L 1947.988281 923.988281 Z M 1942.980469 919.75 L 1944.808594 919.75 L 1944.808594 922.632812 L 1942.980469 922.632812 Z M 1939.816406 919.75 L 1941.617188 919.75 L 1941.617188 922.632812 L 1939.816406 922.632812 Z M 1944.808594 915.507812 L 1944.808594 918.382812 L 1942.980469 918.382812 L 1942.980469 915.507812 Z M 1944.808594 911.269531 L 1944.808594 914.140625 L 1942.980469 914.140625 L 1942.980469 911.269531 Z M 1944.808594 907.027344 L 1944.808594 909.914062 L 1942.980469 909.914062 L 1942.980469 907.027344 Z M 1944.808594 902.789062 L 1944.808594 905.65625 L 1942.980469 905.65625 L 1942.980469 902.789062 Z M 1944.808594 898.546875 L 1944.808594 901.421875 L 1942.980469 901.421875 L 1942.980469 898.546875 Z M 1944.808594 894.308594 L 1944.808594 897.179688 L 1942.980469 897.179688 L 1942.980469 894.308594 Z M 1944.808594 883.25 L 1944.808594 886.175781 L 1942.980469 886.175781 L 1942.980469 883.25 Z M 1944.808594 878.945312 L 1944.808594 881.882812 L 1942.980469 881.882812 L 1942.980469 878.945312 Z M 1944.808594 874.660156 L 1944.808594 877.589844 L 1942.980469 877.589844 L 1942.980469 874.660156 Z M 1944.808594 870.367188 L 1944.808594 873.292969 L 1942.980469 873.292969 L 1942.980469 870.367188 Z M 1944.808594 866.085938 L 1944.808594 869.011719 L 1942.980469 869.011719 L 1942.980469 866.085938 Z M 1944.808594 861.789062 L 1944.808594 864.71875 L 1942.980469 864.71875 L 1942.980469 861.789062 Z M 1944.808594 857.496094 L 1944.808594 860.417969 L 1942.980469 860.417969 L 1942.980469 857.496094 Z M 1944.808594 856.128906 L 1942.980469 856.128906 L 1942.980469 854.160156 L 1944.808594 854.160156 Z M 1942.980469 887.542969 L 1944.808594 887.542969 L 1944.808594 892.9375 L 1942.980469 892.9375 Z M 1939.816406 915.507812 L 1941.617188 915.507812 L 1941.617188 918.382812 L 1939.816406 918.382812 Z M 1942.980469 923.988281 L 1944.808594 923.988281 L 1944.808594 926.265625 L 1942.980469 926.265625 Z M 1940.972656 849.503906 L 1942.277344 849.503906 L 1942.277344 851.128906 L 1940.972656 851.128906 Z M 1942.277344 840.40625 L 1942.277344 842.464844 L 1940.972656 842.464844 L 1940.972656 840.40625 Z M 1940.972656 837.367188 L 1942.277344 837.367188 L 1942.277344 839.433594 L 1940.972656 839.433594 Z M 1940.972656 834.34375 L 1942.277344 834.34375 L 1942.277344 836.398438 L 1940.972656 836.398438 Z M 1940.972656 831.3125 L 1942.277344 831.3125 L 1942.277344 833.375 L 1940.972656 833.375 Z M 1940.972656 828.28125 L 1942.277344 828.28125 L 1942.277344 830.339844 L 1940.972656 830.339844 Z M 1940.972656 825.351562 L 1940.972656 823.4375 L 1942.277344 823.4375 L 1942.277344 827.308594 L 1940.972656 827.308594 Z M 1940.972656 820.371094 L 1942.277344 820.371094 L 1942.277344 822.457031 L 1940.972656 822.457031 Z M 1940.972656 817.296875 L 1942.277344 817.296875 L 1942.277344 819.402344 L 1940.972656 819.402344 Z M 1940.972656 814.234375 L 1942.277344 814.234375 L 1942.277344 816.324219 L 1940.972656 816.324219 Z M 1940.972656 811.933594 L 1940.972656 811.15625 L 1942.277344 811.15625 L 1942.277344 813.257812 L 1940.972656 813.257812 Z M 1940.972656 808.101562 L 1942.277344 808.101562 L 1942.277344 810.179688 L 1940.972656 810.179688 Z M 1940.972656 805.023438 L 1942.277344 805.023438 L 1942.277344 807.117188 L 1940.972656 807.117188 Z M 1940.972656 801.957031 L 1942.277344 801.957031 L 1942.277344 804.050781 L 1940.972656 804.050781 Z M 1940.972656 799.574219 L 1942.277344 799.574219 L 1942.277344 800.988281 L 1940.972656 800.988281 Z M 1946.816406 800.988281 L 1945.527344 800.988281 L 1945.527344 799.574219 L 1946.816406 799.574219 Z M 1946.816406 804.050781 L 1945.527344 804.050781 L 1945.527344 801.957031 L 1946.816406 801.957031 Z M 1946.816406 807.117188 L 1945.527344 807.117188 L 1945.527344 805.023438 L 1946.816406 805.023438 Z M 1946.816406 810.179688 L 1945.527344 810.179688 L 1945.527344 808.101562 L 1946.816406 808.101562 Z M 1946.816406 811.933594 L 1946.816406 813.257812 L 1945.527344 813.257812 L 1945.527344 811.15625 L 1946.816406 811.15625 Z M 1946.816406 816.324219 L 1945.527344 816.324219 L 1945.527344 814.234375 L 1946.816406 814.234375 Z M 1946.816406 819.402344 L 1945.527344 819.402344 L 1945.527344 817.296875 L 1946.816406 817.296875 Z M 1946.816406 822.457031 L 1945.527344 822.457031 L 1945.527344 820.371094 L 1946.816406 820.371094 Z M 1946.816406 825.351562 L 1946.816406 827.308594 L 1945.527344 827.308594 L 1945.527344 823.4375 L 1946.816406 823.4375 Z M 1946.816406 830.339844 L 1945.527344 830.339844 L 1945.527344 828.28125 L 1946.816406 828.28125 Z M 1946.816406 833.375 L 1945.527344 833.375 L 1945.527344 831.3125 L 1946.816406 831.3125 Z M 1946.816406 836.398438 L 1945.527344 836.398438 L 1945.527344 834.34375 L 1946.816406 834.34375 Z M 1946.816406 839.433594 L 1945.527344 839.433594 L 1945.527344 837.367188 L 1946.816406 837.367188 Z M 1946.816406 842.464844 L 1945.527344 842.464844 L 1945.527344 840.40625 L 1946.816406 840.40625 Z M 1946.816406 845.5 L 1945.527344 845.5 L 1945.527344 843.4375 L 1946.816406 843.4375 Z M 1946.816406 848.535156 L 1945.527344 848.535156 L 1945.527344 846.46875 L 1946.816406 846.46875 Z M 1946.816406 851.128906 L 1945.527344 851.128906 L 1945.527344 849.503906 L 1946.816406 849.503906 Z M 1943.238281 846.46875 L 1944.550781 846.46875 L 1944.550781 848.535156 L 1943.238281 848.535156 Z M 1940.972656 846.46875 L 1942.277344 846.46875 L 1942.277344 848.535156 L 1940.972656 848.535156 Z M 1944.550781 843.4375 L 1944.550781 845.5 L 1943.238281 845.5 L 1943.238281 843.4375 Z M 1944.550781 840.40625 L 1944.550781 842.464844 L 1943.238281 842.464844 L 1943.238281 840.40625 Z M 1944.550781 837.367188 L 1944.550781 839.433594 L 1943.238281 839.433594 L 1943.238281 837.367188 Z M 1944.550781 834.34375 L 1944.550781 836.398438 L 1943.238281 836.398438 L 1943.238281 834.34375 Z M 1944.550781 831.3125 L 1944.550781 833.375 L 1943.238281 833.375 L 1943.238281 831.3125 Z M 1944.550781 828.28125 L 1944.550781 830.339844 L 1943.238281 830.339844 L 1943.238281 828.28125 Z M 1944.550781 820.371094 L 1944.550781 822.457031 L 1943.238281 822.457031 L 1943.238281 820.371094 Z M 1944.550781 817.296875 L 1944.550781 819.402344 L 1943.238281 819.402344 L 1943.238281 817.296875 Z M 1944.550781 814.234375 L 1944.550781 816.324219 L 1943.238281 816.324219 L 1943.238281 814.234375 Z M 1944.550781 808.101562 L 1944.550781 810.179688 L 1943.238281 810.179688 L 1943.238281 808.101562 Z M 1944.550781 805.023438 L 1944.550781 807.117188 L 1943.238281 807.117188 L 1943.238281 805.023438 Z M 1944.550781 801.957031 L 1944.550781 804.050781 L 1943.238281 804.050781 L 1943.238281 801.957031 Z M 1943.238281 799.574219 L 1944.550781 799.574219 L 1944.550781 800.988281 L 1943.238281 800.988281 Z M 1943.238281 811.15625 L 1944.550781 811.15625 L 1944.550781 813.257812 L 1943.238281 813.257812 Z M 1943.238281 823.4375 L 1944.550781 823.4375 L 1944.550781 827.308594 L 1943.238281 827.308594 Z M 1940.972656 843.4375 L 1942.277344 843.4375 L 1942.277344 845.5 L 1940.972656 845.5 Z M 1943.238281 849.503906 L 1944.550781 849.503906 L 1944.550781 851.128906 L 1943.238281 851.128906 Z M 1972.765625 1091.339844 L 1973.242188 1091.339844 L 1973.242188 1054.648438 L 1964.449219 1054.648438 L 1964.449219 1046.117188 L 1959.421875 1046.117188 L 1959.421875 1037.679688 L 1951.980469 1037.679688 L 1951.980469 1034.320312 L 1952.054688 1034.320312 L 1952.054688 1032.289062 L 1951.980469 1032.289062 L 1951.980469 1028.007812 L 1952.054688 1028.007812 L 1952.054688 1025.988281 L 1951.980469 1025.988281 L 1951.980469 1021.730469 L 1952.054688 1021.730469 L 1952.054688 1019.707031 L 1951.980469 1019.707031 L 1951.980469 930.765625 L 1955.246094 930.765625 L 1955.246094 928.511719 L 1952.261719 928.511719 L 1952.261719 926.265625 L 1949.339844 926.265625 L 1949.339844 923.988281 L 1949.398438 923.988281 L 1949.398438 922.632812 L 1949.339844 922.632812 L 1949.339844 919.75 L 1949.398438 919.75 L 1949.398438 918.382812 L 1949.339844 918.382812 L 1949.339844 915.507812 L 1949.398438 915.507812 L 1949.398438 914.140625 L 1949.339844 914.140625 L 1949.339844 854.160156 L 1951.542969 854.160156 L 1951.542969 852.644531 L 1949.53125 852.644531 L 1949.53125 851.128906 L 1947.804688 851.128906 L 1947.804688 849.503906 L 1947.828125 849.503906 L 1947.828125 848.535156 L 1947.804688 848.535156 L 1947.804688 846.46875 L 1947.828125 846.46875 L 1947.828125 845.5 L 1947.804688 845.5 L 1947.804688 843.4375 L 1947.828125 843.4375 L 1947.828125 842.464844 L 1947.804688 842.464844 L 1947.804688 799.574219 L 1949.375 799.574219 L 1949.375 798.496094 L 1947.9375 798.496094 L 1947.9375 797.40625 L 1944.90625 797.40625 L 1944.90625 758.71875 L 1942.910156 758.71875 L 1942.910156 797.40625 L 1939.863281 797.40625 L 1939.863281 798.496094 L 1938.425781 798.496094 L 1938.425781 799.574219 L 1940 799.574219 L 1940 851.128906 L 1938.257812 851.128906 L 1938.257812 852.644531 L 1936.246094 852.644531 L 1936.246094 854.160156 L 1938.425781 854.160156 L 1938.425781 926.265625 L 1935.515625 926.265625 L 1935.515625 928.511719 L 1932.558594 928.511719 L 1932.558594 930.765625 L 1935.808594 930.765625 L 1935.808594 1037.679688 L 1928.371094 1037.679688 L 1928.371094 1046.117188 L 1923.339844 1046.117188 L 1923.339844 1054.648438 L 1914.546875 1054.648438 L 1914.546875 1091.339844 L 1915.023438 1091.339844 L 1902.90625 1107.617188 L 1902.90625 1162.097656 L 1929.988281 1162.097656 L 1912.648438 1525.628906 L 1975.140625 1525.628906 L 1957.351562 1162.097656 L 1984.882812 1162.097656 L 1984.882812 1107.617188 L 1972.765625 1091.339844" fill="#a42428"/></g><g id="change4_1"><path d="M 1204.71875 324.011719 L 1181.269531 324.011719 L 1180.269531 324.058594 L 1179.269531 324.011719 L 1155.808594 324.011719 C 1150.058594 324.011719 1145.390625 328.679688 1145.390625 334.429688 L 1145.390625 457.699219 C 1145.390625 463.460938 1150.058594 468.121094 1155.808594 468.121094 L 1179.269531 468.121094 L 1180.269531 468.070312 L 1181.269531 468.121094 L 1204.71875 468.121094 C 1210.480469 468.121094 1215.148438 463.460938 1215.148438 457.699219 L 1215.148438 334.429688 C 1215.148438 328.679688 1210.480469 324.011719 1204.71875 324.011719" fill="#13162c"/></g><g id="change4_2"><path d="M 1252.308594 529.460938 L 1109.378906 529.460938 L 1034.558594 591.96875 L 1327.121094 591.96875 L 1252.308594 529.460938" fill="#13162c"/></g><g id="change4_3"><path d="M 1499.5 594.570312 C 1499.5 594.570312 1499.441406 609.320312 1475.128906 613.671875 C 1450.828125 618.011719 1320.609375 584.148438 1320.609375 584.148438 L 1041.070312 584.148438 C 1041.070312 584.148438 910.855469 618.011719 886.546875 613.671875 C 862.238281 609.320312 862.179688 594.570312 862.179688 594.570312 L 862.238281 609.320312 C 862.238281 609.320312 858.765625 649.261719 905.648438 652.730469 C 905.648438 652.730469 905.648438 674.429688 928.21875 665.761719 C 928.21875 665.761719 927.351562 670.960938 936.898438 676.171875 C 946.449219 681.378906 975.09375 690.929688 988.984375 692.671875 L 988.984375 711.761719 L 1372.699219 711.761719 L 1372.699219 692.671875 C 1386.589844 690.929688 1415.238281 681.378906 1424.789062 676.171875 C 1434.328125 670.960938 1433.460938 665.761719 1433.460938 665.761719 C 1456.039062 674.429688 1456.039062 652.730469 1456.039062 652.730469 C 1502.910156 649.261719 1499.441406 609.320312 1499.441406 609.320312 L 1499.5 594.570312" fill="#13162c"/></g><g id="change4_4"><path d="M 1009.378906 585.890625 L 1009.378906 576.339844 L 995.460938 576.339844 C 962.898438 519.761719 946.8125 474.46875 943.992188 473.910156 C 941.097656 473.328125 936.464844 478.539062 936.464844 478.539062 C 943.019531 508.96875 957.902344 558.511719 963.355469 576.339844 L 950.929688 576.339844 L 950.929688 585.890625 L 941.671875 585.890625 L 941.671875 609.320312 L 1018.929688 603.25 L 1018.929688 585.890625 L 1009.378906 585.890625" fill="#13162c"/></g><g id="change4_5"><path d="M 1352.300781 585.890625 L 1352.300781 576.339844 L 1366.21875 576.339844 C 1398.789062 519.761719 1414.871094 474.46875 1417.691406 473.910156 C 1420.578125 473.328125 1425.210938 478.539062 1425.210938 478.539062 C 1418.660156 508.96875 1403.78125 558.511719 1398.328125 576.339844 L 1410.75 576.339844 L 1410.75 585.890625 L 1420.011719 585.890625 L 1420.011719 609.320312 L 1342.738281 603.25 L 1342.738281 585.890625 L 1352.300781 585.890625" fill="#13162c"/></g><g id="change4_6"><path d="M 1251.160156 496.480469 L 1109.378906 496.480469 L 1109.378906 533.800781 L 1251.160156 533.800781 L 1251.160156 496.480469" fill="#13162c"/></g><g id="change4_7"><path d="M 1120.660156 498.210938 C 1120.660156 503.960938 1125.320312 508.628906 1131.070312 508.628906 L 1229.460938 508.628906 C 1235.210938 508.628906 1239.878906 503.960938 1239.878906 498.210938 L 1239.878906 460.589844 C 1239.878906 454.828125 1235.210938 450.179688 1229.460938 450.179688 L 1131.070312 450.179688 C 1125.320312 450.179688 1120.660156 454.828125 1120.660156 460.589844 L 1120.660156 498.210938" fill="#13162c"/></g><g id="change4_8"><path d="M 1129.628906 405.328125 C 1129.628906 411.070312 1134.289062 415.738281 1140.039062 415.738281 L 1220.488281 415.738281 C 1226.25 415.738281 1230.910156 411.070312 1230.910156 405.328125 L 1230.910156 392.308594 C 1230.910156 386.558594 1226.25 381.898438 1220.488281 381.898438 L 1140.039062 381.898438 C 1134.289062 381.898438 1129.628906 386.558594 1129.628906 392.308594 L 1129.628906 405.328125" fill="#13162c"/></g><g id="change4_9"><path d="M 1189.824219 252.238281 L 1170.710938 252.238281 L 1157.40625 324.015625 L 1157.40625 337.3125 L 1203.132812 337.3125 L 1203.132812 324.015625 L 1189.824219 252.238281" fill="#13162c"/></g><g id="change4_10"><path d="M 1157.398438 256.757812 C 1157.398438 269.398438 1167.636719 279.636719 1180.265625 279.636719 C 1192.894531 279.636719 1203.132812 269.398438 1203.132812 256.757812 C 1203.132812 244.140625 1192.894531 233.902344 1180.265625 233.902344 C 1167.636719 233.902344 1157.398438 244.140625 1157.398438 256.757812" fill="#13162c"/></g><g id="change4_11"><path d="M 1004.25 865.429688 L 1353.820312 865.429688 L 1353.820312 835.46875 L 1004.25 835.46875 L 1004.25 865.429688" fill="#13162c"/></g><g id="change4_12"><path d="M 1342.738281 789.578125 L 1015.320312 789.578125 L 1015.320312 762.238281 L 1342.738281 762.238281 L 1342.738281 789.578125" fill="#13162c"/></g><g id="change4_13"><path d="M 1086.921875 850.449219 L 1113.941406 850.449219 L 1113.941406 701.359375 L 1086.921875 701.359375 L 1086.921875 850.449219" fill="#13162c"/></g><g id="change4_14"><path d="M 1244.128906 843.941406 L 1271.140625 843.941406 L 1271.140625 694.851562 L 1244.128906 694.851562 L 1244.128906 843.941406" fill="#13162c"/></g><g id="change4_15"><path d="M 1026.390625 865.429688 L 1004.25 865.429688 L 1004.25 701.359375 L 1026.390625 701.359375 L 1026.390625 865.429688" fill="#13162c"/></g><g id="change4_16"><path d="M 1353.820312 865.429688 L 1331.679688 865.429688 L 1331.679688 701.359375 L 1353.820312 701.359375 L 1353.820312 865.429688" fill="#13162c"/></g><g id="change4_17"><path d="M 1161.449219 850.449219 L 1196.609375 850.449219 L 1196.609375 701.359375 L 1161.449219 701.359375 L 1161.449219 850.449219" fill="#13162c"/></g><g id="change4_18"><path d="M 1533.359375 865.160156 C 1533.359375 865.160156 1533.300781 885.988281 1506.398438 892.109375 C 1479.519531 898.242188 1335.460938 850.449219 1335.460938 850.449219 L 1026.21875 850.449219 C 1026.21875 850.449219 882.164062 898.242188 855.273438 892.109375 C 828.386719 885.988281 828.320312 865.160156 828.320312 865.160156 L 828.386719 885.988281 C 828.386719 885.988281 824.539062 942.363281 876.410156 947.261719 C 876.410156 947.261719 876.410156 977.894531 901.371094 965.640625 C 901.371094 965.640625 900.414062 972.992188 910.976562 980.339844 C 921.542969 987.695312 953.234375 1001.179688 968.601562 1003.621094 L 968.601562 1030.589844 L 1393.078125 1030.589844 L 1393.078125 1003.621094 C 1408.449219 1001.179688 1440.140625 987.695312 1450.710938 980.339844 C 1461.269531 972.992188 1460.308594 965.640625 1460.308594 965.640625 C 1485.28125 977.894531 1485.28125 947.261719 1485.28125 947.261719 C 1537.140625 942.363281 1533.300781 885.988281 1533.300781 885.988281 L 1533.359375 865.160156" fill="#13162c"/></g><g id="change4_19"><path d="M 1573.480469 1181.160156 C 1573.480469 1181.160156 1573.410156 1201.988281 1546.519531 1208.109375 C 1519.640625 1214.238281 1375.578125 1166.449219 1375.578125 1166.449219 L 986.105469 1166.449219 C 986.105469 1166.449219 842.046875 1214.238281 815.160156 1208.109375 C 788.269531 1201.988281 788.203125 1181.160156 788.203125 1181.160156 L 788.269531 1201.988281 C 788.269531 1201.988281 784.429688 1258.351562 836.285156 1263.25 C 836.285156 1263.25 836.285156 1293.890625 861.253906 1281.628906 C 861.253906 1281.628906 860.296875 1288.988281 870.855469 1296.339844 C 881.425781 1303.691406 913.117188 1317.171875 928.484375 1319.621094 L 928.484375 1346.578125 L 1433.199219 1346.578125 L 1433.199219 1319.621094 C 1448.570312 1317.171875 1480.261719 1303.691406 1490.820312 1296.339844 C 1501.390625 1288.988281 1500.429688 1281.628906 1500.429688 1281.628906 C 1525.398438 1293.890625 1525.398438 1263.25 1525.398438 1263.25 C 1577.261719 1258.351562 1573.410156 1201.988281 1573.410156 1201.988281 L 1573.480469 1181.160156" fill="#13162c"/></g><g id="change4_20"><path d="M 1368.820312 1109.621094 L 992.867188 1109.621094 L 992.867188 1082.269531 L 1368.820312 1082.269531 L 1368.820312 1109.621094" fill="#13162c"/></g><g id="change4_21"><path d="M 1009.308594 1177.980469 L 981.980469 1177.980469 L 981.980469 1013.921875 L 1009.308594 1013.921875 L 1009.308594 1177.980469" fill="#13162c"/></g><g id="change4_22"><path d="M 1100.789062 1177.980469 L 1073.460938 1177.980469 L 1073.460938 1013.921875 L 1100.789062 1013.921875 L 1100.789062 1177.980469" fill="#13162c"/></g><g id="change4_23"><path d="M 1192.28125 1177.980469 L 1164.949219 1177.980469 L 1164.949219 1013.921875 L 1192.28125 1013.921875 L 1192.28125 1177.980469" fill="#13162c"/></g><g id="change4_24"><path d="M 1283.761719 1177.980469 L 1256.429688 1177.980469 L 1256.429688 1013.921875 L 1283.761719 1013.921875 L 1283.761719 1177.980469" fill="#13162c"/></g><g id="change4_25"><path d="M 1375.238281 1177.980469 L 1347.910156 1177.980469 L 1347.910156 1013.921875 L 1375.238281 1013.921875 L 1375.238281 1177.980469" fill="#13162c"/></g><g id="change4_26"><path d="M 1418.671875 1427.789062 L 943.882812 1427.789062 L 943.882812 1400.441406 L 1418.671875 1400.441406 L 1418.671875 1427.789062" fill="#13162c"/></g><g id="change4_27"><path d="M 960.328125 1496.140625 L 933 1496.140625 L 933 1332.070312 L 960.328125 1332.070312 L 960.328125 1496.140625" fill="#13162c"/></g><g id="change4_28"><path d="M 1051.808594 1496.140625 L 1024.480469 1496.140625 L 1024.480469 1332.070312 L 1051.808594 1332.070312 L 1051.808594 1496.140625" fill="#13162c"/></g><g id="change4_29"><path d="M 1143.289062 1496.140625 L 1115.960938 1496.140625 L 1115.960938 1332.070312 L 1143.289062 1332.070312 L 1143.289062 1496.140625" fill="#13162c"/></g><g id="change4_30"><path d="M 1234.78125 1496.140625 L 1207.441406 1496.140625 L 1207.441406 1332.070312 L 1234.78125 1332.070312 L 1234.78125 1496.140625" fill="#13162c"/></g><g id="change4_31"><path d="M 1326.261719 1496.140625 L 1298.929688 1496.140625 L 1298.929688 1332.070312 L 1326.261719 1332.070312 L 1326.261719 1496.140625" fill="#13162c"/></g><g id="change4_32"><path d="M 1425.21875 1496.140625 L 1397.890625 1496.140625 L 1397.890625 1332.070312 L 1425.21875 1332.070312 L 1425.21875 1496.140625" fill="#13162c"/></g><g id="change4_33"><path d="M 1459.511719 1663.460938 L 902.175781 1663.460938 L 902.175781 1481.148438 L 1459.511719 1481.148438 L 1459.511719 1663.460938" fill="#13162c"/></g></g></svg>