<?xml version="1.0" encoding="UTF-8" standalone="no"?><svg xmlns="http://www.w3.org/2000/svg" xmlns:xlink="http://www.w3.org/1999/xlink" fill="#000000" height="296.8" preserveAspectRatio="xMidYMid meet" version="1" viewBox="51.2 64.2 322.8 296.8" width="322.8" zoomAndPan="magnify"><g><g id="change1_1"><path d="M 351.234375 115.875 L 73.964844 115.875 L 73.964844 103.265625 L 351.234375 103.265625 L 351.234375 115.875" fill="#ff1616"/></g><g id="change2_1"><path d="M 351.234375 115.875 L 351.234375 114.375 L 75.464844 114.375 L 75.460938 104.765625 L 349.734375 104.765625 L 349.734375 115.875 L 351.234375 115.875 L 351.234375 114.375 L 351.234375 115.875 L 352.734375 115.875 L 352.734375 101.765625 L 72.464844 101.765625 L 72.464844 117.375 L 352.734375 117.375 L 352.734375 115.875 L 351.234375 115.875" fill="#231f20"/></g><g id="change1_2"><path d="M 157.820312 359.492188 L 119.660156 359.492188 L 119.660156 336.859375 L 157.820312 336.859375 L 157.820312 359.492188" fill="#ff1616"/></g><g id="change2_2"><path d="M 157.820312 359.492188 L 157.820312 357.992188 L 121.160156 357.992188 L 121.160156 338.359375 L 156.320312 338.359375 L 156.320312 359.492188 L 157.820312 359.492188 L 157.820312 357.992188 L 157.820312 359.492188 L 159.320312 359.492188 L 159.320312 335.359375 L 118.160156 335.359375 L 118.160156 360.992188 L 159.320312 360.992188 L 159.320312 359.492188 L 157.820312 359.492188" fill="#231f20"/></g><g id="change1_3"><path d="M 154.886719 326.976562 L 122.597656 326.976562 L 122.597656 336.859375 L 154.886719 336.859375 L 154.886719 326.976562" fill="#ff1616"/></g><g id="change2_3"><path d="M 154.886719 326.976562 L 154.886719 325.472656 L 121.097656 325.472656 L 121.097656 338.359375 L 156.382812 338.359375 L 156.382812 325.472656 L 154.886719 325.472656 L 154.886719 326.976562 L 153.386719 326.976562 L 153.386719 335.359375 L 124.097656 335.359375 L 124.097656 328.472656 L 154.886719 328.476562 L 154.886719 326.976562 L 153.386719 326.976562 L 154.886719 326.976562" fill="#231f20"/></g><g id="change1_4"><path d="M 356.722656 99.007812 C 260.757812 106.585938 164.441406 106.585938 68.476562 99.007812 C 63.136719 87.9375 57.878906 76.84375 52.703125 65.730469 C 52.648438 65.046875 98.949219 82.652344 212.601562 83.445312 C 326.246094 82.648438 372.550781 65.046875 372.496094 65.730469 C 367.320312 76.84375 362.0625 87.9375 356.722656 99.007812" fill="#ff1616"/></g><g id="change2_4"><path d="M 356.722656 99.007812 L 356.601562 97.511719 C 308.660156 101.296875 260.628906 103.1875 212.597656 103.1875 C 164.566406 103.1875 116.535156 101.296875 68.59375 97.511719 L 68.476562 99.007812 L 69.828125 98.355469 C 64.488281 87.289062 59.234375 76.203125 54.0625 65.09375 L 52.703125 65.730469 L 54.203125 65.730469 L 52.71875 65.730469 L 53.933594 66.578125 C 54.125 66.3125 54.207031 65.96875 54.203125 65.730469 L 52.71875 65.730469 L 53.933594 66.578125 L 52.71875 65.730469 L 53.472656 67.007812 C 53.617188 66.921875 53.792969 66.78125 53.933594 66.578125 L 52.71875 65.730469 L 53.472656 67.007812 L 52.730469 65.75 L 52.976562 67.1875 C 53.085938 67.167969 53.246094 67.136719 53.472656 67.007812 L 52.730469 65.75 L 52.976562 67.1875 L 52.75 65.84375 L 52.75 67.207031 C 52.796875 67.207031 52.863281 67.207031 52.976562 67.1875 L 52.75 65.84375 L 52.75 67.207031 L 52.75 66.382812 L 52.609375 67.199219 C 52.613281 67.195312 52.621094 67.203125 52.75 67.207031 L 52.75 66.382812 L 52.609375 67.199219 C 52.65625 67.203125 53.03125 67.296875 53.550781 67.441406 C 55.546875 67.992188 60.09375 69.332031 67.335938 71.023438 C 89.085938 76.101562 135.320312 84.40625 212.589844 84.945312 L 212.609375 84.945312 C 268.425781 84.554688 308.050781 80.113281 333.945312 75.761719 C 346.894531 73.589844 356.414062 71.433594 362.804688 69.824219 C 366 69.019531 368.414062 68.347656 370.074219 67.882812 C 370.902344 67.648438 371.546875 67.464844 371.988281 67.347656 C 372.210938 67.285156 372.382812 67.242188 372.488281 67.21875 L 372.585938 67.199219 L 372.449219 66.386719 L 372.449219 67.207031 C 372.574219 67.203125 372.585938 67.199219 372.585938 67.199219 L 372.449219 66.386719 L 372.449219 67.207031 L 372.449219 65.800781 L 371.933594 67.105469 C 372.261719 67.226562 372.375 67.199219 372.449219 67.207031 L 372.449219 65.800781 L 371.933594 67.105469 L 372.476562 65.734375 L 371.316406 66.652344 C 371.53125 66.917969 371.773438 67.042969 371.933594 67.105469 L 372.476562 65.734375 L 371.316406 66.652344 L 372.480469 65.726562 L 370.996094 65.730469 C 370.988281 66.003906 371.101562 66.390625 371.316406 66.652344 L 372.480469 65.726562 L 370.996094 65.730469 L 372.496094 65.730469 L 371.136719 65.09375 C 365.964844 76.203125 360.707031 87.289062 355.371094 98.355469 L 356.722656 99.007812 L 356.601562 97.511719 L 356.722656 99.007812 L 358.070312 99.65625 C 363.414062 88.582031 368.675781 77.480469 373.855469 66.359375 L 373.996094 66.0625 L 373.996094 65.730469 C 374.003906 65.445312 373.890625 65.054688 373.667969 64.785156 C 373.507812 64.582031 373.320312 64.457031 373.175781 64.382812 C 372.949219 64.269531 372.796875 64.242188 372.6875 64.226562 C 372.578125 64.210938 372.503906 64.207031 372.449219 64.207031 C 372.269531 64.210938 372.179688 64.226562 372.085938 64.242188 C 371.75 64.300781 371.402344 64.398438 370.84375 64.550781 C 368.804688 65.113281 364.363281 66.425781 357.179688 68.101562 C 335.648438 73.128906 289.648438 81.40625 212.589844 81.945312 L 212.601562 83.445312 L 212.609375 81.945312 C 156.941406 81.558594 117.480469 77.128906 91.746094 72.804688 C 78.878906 70.644531 69.445312 68.507812 63.125 66.914062 C 59.964844 66.117188 57.585938 65.457031 55.933594 64.992188 C 55.109375 64.761719 54.464844 64.578125 53.988281 64.449219 C 53.746094 64.386719 53.546875 64.335938 53.371094 64.292969 C 53.28125 64.273438 53.199219 64.257812 53.109375 64.238281 C 53.015625 64.226562 52.925781 64.210938 52.75 64.207031 C 52.628906 64.214844 52.464844 64.191406 52.097656 64.34375 C 51.917969 64.425781 51.667969 64.585938 51.476562 64.859375 C 51.28125 65.128906 51.199219 65.480469 51.203125 65.730469 L 51.203125 66.058594 L 51.34375 66.359375 C 56.519531 77.480469 61.78125 88.582031 67.125 99.65625 L 67.5 100.433594 L 68.359375 100.5 C 116.378906 104.292969 164.488281 106.1875 212.597656 106.1875 C 260.707031 106.1875 308.816406 104.292969 356.839844 100.5 L 357.695312 100.433594 L 358.070312 99.65625 L 356.722656 99.007812" fill="#231f20"/></g><g id="change1_5"><path d="M 360.25 100.257812 C 360.429688 102.867188 358.691406 105.15625 356.363281 105.355469 C 260.660156 113.617188 164.539062 113.617188 68.835938 105.355469 C 66.507812 105.15625 64.769531 102.867188 64.953125 100.257812 C 65.132812 97.644531 67.15625 95.691406 69.472656 95.894531 C 164.753906 104.117188 260.445312 104.117188 355.722656 95.894531 C 358.039062 95.691406 360.066406 97.644531 360.25 100.257812" fill="#ff1616"/></g><g id="change2_5"><path d="M 360.25 100.257812 L 358.753906 100.355469 C 358.757812 100.445312 358.761719 100.535156 358.761719 100.625 C 358.761719 101.511719 358.457031 102.316406 357.984375 102.890625 C 357.507812 103.46875 356.902344 103.804688 356.234375 103.863281 C 308.425781 107.988281 260.511719 110.054688 212.601562 110.054688 C 164.6875 110.054688 116.773438 107.988281 68.964844 103.863281 C 68.296875 103.804688 67.691406 103.46875 67.214844 102.890625 C 66.742188 102.316406 66.433594 101.515625 66.4375 100.632812 C 66.4375 100.535156 66.441406 100.449219 66.445312 100.382812 L 66.449219 100.359375 C 66.507812 99.457031 66.871094 98.695312 67.375 98.175781 C 67.886719 97.652344 68.5 97.378906 69.148438 97.378906 L 69.328125 97.386719 L 69.34375 97.386719 C 117.027344 101.503906 164.8125 103.5625 212.601562 103.5625 C 260.386719 103.5625 308.171875 101.503906 355.851562 97.386719 L 356.046875 97.378906 C 356.695312 97.378906 357.3125 97.652344 357.820312 98.175781 C 358.324219 98.695312 358.691406 99.460938 358.753906 100.363281 L 358.753906 100.355469 L 360.25 100.257812 L 361.746094 100.148438 C 361.632812 98.5625 360.988281 97.136719 359.980469 96.09375 C 358.976562 95.046875 357.578125 94.375 356.046875 94.378906 C 355.890625 94.378906 355.738281 94.386719 355.589844 94.398438 C 307.996094 98.507812 260.300781 100.5625 212.601562 100.5625 C 164.898438 100.5625 117.199219 98.507812 69.601562 94.398438 L 69.472656 95.894531 L 69.617188 94.398438 C 69.449219 94.382812 69.289062 94.378906 69.148438 94.378906 C 67.617188 94.378906 66.21875 95.046875 65.21875 96.09375 C 64.210938 97.136719 63.5625 98.5625 63.453125 100.152344 L 64.953125 100.257812 L 63.457031 100.128906 C 63.441406 100.3125 63.4375 100.480469 63.4375 100.632812 C 63.4375 102.203125 63.972656 103.667969 64.894531 104.792969 C 65.8125 105.917969 67.160156 106.71875 68.707031 106.851562 C 116.601562 110.984375 164.601562 113.054688 212.601562 113.054688 C 260.597656 113.054688 308.597656 110.984375 356.492188 106.851562 C 358.042969 106.71875 359.386719 105.917969 360.304688 104.789062 C 361.226562 103.660156 361.761719 102.195312 361.761719 100.625 C 361.761719 100.472656 361.757812 100.316406 361.746094 100.15625 L 361.746094 100.148438 L 360.25 100.257812" fill="#231f20"/></g><g id="change1_6"><path d="M 305.664062 359.492188 L 267.507812 359.492188 L 267.507812 336.859375 L 305.664062 336.859375 L 305.664062 359.492188" fill="#ff1616"/></g><g id="change2_6"><path d="M 305.664062 359.492188 L 305.664062 357.992188 L 269.003906 357.992188 L 269.003906 338.359375 L 304.164062 338.359375 L 304.164062 359.492188 L 305.664062 359.492188 L 305.664062 357.992188 L 305.664062 359.492188 L 307.164062 359.492188 L 307.164062 335.359375 L 266.007812 335.359375 L 266.007812 360.992188 L 307.164062 360.992188 L 307.164062 359.492188 L 305.664062 359.492188" fill="#231f20"/></g><g id="change1_7"><path d="M 302.730469 326.976562 L 270.441406 326.976562 L 270.441406 336.859375 L 302.730469 336.859375 L 302.730469 326.976562" fill="#ff1616"/></g><g id="change2_7"><path d="M 302.730469 326.976562 L 302.730469 325.472656 L 268.941406 325.472656 L 268.941406 338.359375 L 304.226562 338.359375 L 304.226562 325.472656 L 302.730469 325.472656 L 302.730469 326.976562 L 301.230469 326.976562 L 301.230469 335.359375 L 271.941406 335.359375 L 271.941406 328.472656 L 302.730469 328.476562 L 302.730469 326.976562 L 301.230469 326.976562 L 302.730469 326.976562" fill="#231f20"/></g><g id="change1_8"><path d="M 150.207031 326.980469 L 127.144531 326.980469 L 130.355469 164.921875 L 147 164.921875 L 150.207031 326.980469" fill="#ff1616"/></g><g id="change2_8"><path d="M 150.207031 326.980469 L 150.207031 325.480469 L 128.671875 325.480469 L 131.824219 166.421875 L 145.527344 166.421875 L 148.707031 327.007812 L 150.207031 326.980469 L 150.207031 325.480469 L 150.207031 326.980469 L 151.707031 326.949219 L 148.46875 163.421875 L 128.882812 163.421875 L 125.613281 328.476562 L 151.734375 328.476562 L 151.707031 326.949219 L 150.207031 326.980469" fill="#231f20"/></g><g id="change1_9"><path d="M 151.640625 153.082031 L 125.710938 153.082031 L 125.710938 134.070312 L 151.640625 134.070312 L 151.640625 153.082031" fill="#ff1616"/></g><g id="change2_9"><path d="M 151.640625 153.082031 L 151.640625 151.582031 L 127.207031 151.582031 L 127.207031 135.570312 L 150.140625 135.570312 L 150.140625 153.082031 L 151.640625 153.082031 L 151.640625 151.582031 L 151.640625 153.082031 L 153.140625 153.082031 L 153.140625 132.570312 L 124.207031 132.570312 L 124.207031 154.582031 L 153.140625 154.582031 L 153.140625 153.082031 L 151.640625 153.082031" fill="#231f20"/></g><g id="change1_10"><path d="M 148.46875 115.875 L 128.886719 115.875 L 128.886719 134.070312 L 148.46875 134.070312 L 148.46875 115.875" fill="#ff1616"/></g><g id="change2_10"><path d="M 148.46875 115.875 L 148.46875 114.375 L 127.382812 114.375 L 127.382812 135.570312 L 149.96875 135.570312 L 149.96875 114.375 L 148.46875 114.375 L 148.46875 115.875 L 146.964844 115.875 L 146.964844 132.570312 L 130.386719 132.570312 L 130.386719 117.375 L 148.46875 117.375 L 148.46875 115.875 L 146.964844 115.875 L 148.46875 115.875" fill="#231f20"/></g><g id="change1_11"><path d="M 298.054688 326.980469 L 274.992188 326.980469 L 278.195312 164.921875 L 294.847656 164.921875 L 298.054688 326.980469" fill="#ff1616"/></g><g id="change2_11"><path d="M 298.054688 326.980469 L 298.054688 325.476562 L 276.523438 325.476562 L 279.667969 166.421875 L 293.375 166.421875 L 296.554688 327.007812 L 298.054688 326.980469 L 298.054688 325.476562 L 298.054688 326.980469 L 299.550781 326.949219 L 296.316406 163.421875 L 276.726562 163.421875 L 273.460938 328.480469 L 299.582031 328.480469 L 299.550781 326.949219 L 298.054688 326.980469" fill="#231f20"/></g><g id="change1_12"><path d="M 299.488281 153.082031 L 273.558594 153.082031 L 273.558594 134.070312 L 299.488281 134.070312 L 299.488281 153.082031" fill="#ff1616"/></g><g id="change2_12"><path d="M 299.488281 153.082031 L 299.488281 151.582031 L 275.058594 151.582031 L 275.058594 135.570312 L 297.988281 135.570312 L 297.988281 153.082031 L 299.488281 153.082031 L 299.488281 151.582031 L 299.488281 153.082031 L 300.988281 153.082031 L 300.988281 132.570312 L 272.054688 132.570312 L 272.054688 154.582031 L 300.988281 154.582031 L 300.988281 153.082031 L 299.488281 153.082031" fill="#231f20"/></g><g id="change1_13"><path d="M 296.3125 115.875 L 276.730469 115.875 L 276.730469 134.070312 L 296.3125 134.070312 L 296.3125 115.875" fill="#ff1616"/></g><g id="change2_13"><path d="M 296.3125 115.875 L 296.3125 114.375 L 275.230469 114.375 L 275.230469 135.570312 L 297.8125 135.570312 L 297.8125 114.375 L 296.3125 114.375 L 296.3125 115.875 L 294.808594 115.875 L 294.808594 132.570312 L 278.230469 132.570312 L 278.230469 117.375 L 296.3125 117.375 L 296.3125 115.875 L 294.808594 115.875 L 296.3125 115.875" fill="#231f20"/></g><g id="change1_14"><path d="M 332.054688 153.902344 C 302.300781 156.25 122.898438 156.25 93.144531 153.902344 C 91.488281 150.46875 89.855469 147.027344 88.25 143.582031 C 88.246094 143.476562 150.421875 149.546875 212.601562 149.546875 C 274.777344 149.546875 336.953125 143.476562 336.945312 143.582031 C 335.34375 147.027344 333.710938 150.46875 332.054688 153.902344" fill="#ff1616"/></g><g id="change2_14"><path d="M 332.054688 153.902344 L 331.9375 152.410156 C 324.589844 152.988281 307.785156 153.433594 286.335938 153.722656 C 264.875 154.015625 238.738281 154.164062 212.597656 154.164062 C 186.460938 154.164062 160.320312 154.015625 138.863281 153.722656 C 117.410156 153.429688 100.605469 152.988281 93.261719 152.410156 L 93.144531 153.902344 L 94.492188 153.253906 C 92.84375 149.824219 91.214844 146.390625 89.609375 142.949219 L 88.25 143.582031 L 89.75 143.582031 L 88.253906 143.582031 L 89.597656 144.238281 C 89.695312 144.039062 89.75 143.800781 89.75 143.582031 L 88.253906 143.582031 L 89.597656 144.238281 L 88.253906 143.582031 L 89.003906 144.875 C 89.175781 144.777344 89.421875 144.589844 89.597656 144.238281 L 88.253906 143.582031 L 89.003906 144.875 L 88.257812 143.589844 L 88.488281 145.0625 C 88.59375 145.039062 88.742188 145.023438 89.003906 144.875 L 88.257812 143.589844 L 88.488281 145.0625 L 88.261719 143.628906 L 88.261719 145.078125 C 88.316406 145.078125 88.378906 145.078125 88.488281 145.0625 L 88.261719 143.628906 L 88.261719 145.078125 C 88.570312 145.097656 89.859375 145.210938 91.90625 145.386719 C 106.300781 146.613281 159.421875 151.042969 212.601562 151.046875 C 243.46875 151.042969 274.316406 149.550781 297.582031 148.058594 C 309.21875 147.3125 318.957031 146.566406 325.851562 146.007812 C 329.300781 145.726562 332.035156 145.492188 333.945312 145.332031 C 334.898438 145.25 335.644531 145.183594 336.164062 145.140625 C 336.425781 145.121094 336.628906 145.105469 336.769531 145.09375 L 336.933594 145.082031 L 336.929688 145.070312 L 336.929688 145.078125 L 336.933594 145.082031 L 336.929688 145.070312 L 336.929688 145.078125 C 337.03125 145.078125 337.105469 145.070312 337.121094 145.066406 L 336.9375 143.59375 L 336.9375 145.078125 C 337.0625 145.078125 337.109375 145.066406 337.121094 145.066406 L 336.9375 143.59375 L 336.9375 145.078125 L 336.960938 145.078125 L 336.9375 143.632812 L 336.890625 145.078125 L 336.960938 145.078125 L 336.9375 143.632812 L 336.890625 145.078125 L 336.941406 143.585938 L 336.269531 144.917969 C 336.648438 145.09375 336.808594 145.066406 336.890625 145.078125 L 336.941406 143.585938 L 336.269531 144.917969 L 336.941406 143.582031 L 335.671875 144.371094 C 335.835938 144.644531 336.082031 144.828125 336.269531 144.917969 L 336.941406 143.582031 L 335.671875 144.371094 L 336.941406 143.582031 L 335.445312 143.582031 C 335.441406 143.796875 335.5 144.101562 335.671875 144.371094 L 336.941406 143.582031 L 335.445312 143.582031 L 336.945312 143.582031 L 335.585938 142.949219 C 333.984375 146.390625 332.355469 149.824219 330.703125 153.253906 L 332.054688 153.902344 L 331.9375 152.410156 L 332.054688 153.902344 L 333.40625 154.554688 C 335.0625 151.113281 336.699219 147.667969 338.304688 144.214844 L 338.445312 143.914062 L 338.445312 143.582031 C 338.445312 143.417969 338.414062 143.203125 338.320312 142.984375 C 338.242188 142.796875 338.109375 142.617188 337.972656 142.484375 C 337.71875 142.253906 337.480469 142.171875 337.332031 142.132812 C 337.101562 142.074219 337.007812 142.082031 336.957031 142.078125 L 336.917969 142.078125 L 336.9375 143.441406 L 336.9375 142.078125 L 336.917969 142.078125 L 336.9375 143.441406 L 336.9375 142.078125 L 336.777344 142.089844 L 336.746094 142.089844 L 336.929688 143.550781 L 336.929688 142.078125 C 336.820312 142.078125 336.746094 142.09375 336.746094 142.089844 L 336.929688 143.550781 L 336.929688 142.078125 C 336.835938 142.082031 336.804688 142.085938 336.742188 142.085938 C 336.332031 142.113281 335.09375 142.222656 333.03125 142.398438 C 318.675781 143.625 265.613281 148.046875 212.601562 148.042969 C 181.824219 148.046875 151.03125 146.554688 127.804688 145.0625 C 116.191406 144.320312 106.46875 143.574219 99.585938 143.015625 C 96.144531 142.734375 93.414062 142.503906 91.507812 142.339844 C 90.554688 142.257812 89.808594 142.195312 89.28125 142.148438 C 89.015625 142.128906 88.804688 142.113281 88.648438 142.101562 L 88.449219 142.085938 C 88.386719 142.082031 88.355469 142.078125 88.261719 142.078125 C 88.171875 142.082031 88.0625 142.074219 87.804688 142.148438 C 87.675781 142.191406 87.488281 142.253906 87.246094 142.464844 C 87.128906 142.570312 87 142.726562 86.902344 142.925781 C 86.804688 143.121094 86.746094 143.363281 86.75 143.582031 L 86.75 143.914062 L 86.890625 144.214844 C 88.5 147.667969 90.136719 151.113281 91.789062 154.554688 L 92.164062 155.332031 L 93.023438 155.398438 C 100.558594 155.992188 117.335938 156.429688 138.820312 156.722656 C 160.300781 157.015625 186.449219 157.164062 212.597656 157.164062 C 238.75 157.164062 264.898438 157.015625 286.375 156.722656 C 307.863281 156.429688 324.640625 155.992188 332.171875 155.398438 L 333.03125 155.332031 L 333.40625 154.554688 L 332.054688 153.902344" fill="#231f20"/></g><g id="change1_15"><path d="M 320.777344 164.921875 L 104.421875 164.921875 L 104.421875 153.082031 L 320.777344 153.082031 L 320.777344 164.921875" fill="#ff1616"/></g><g id="change2_15"><path d="M 320.777344 164.921875 L 320.777344 163.421875 L 105.917969 163.421875 L 105.917969 154.582031 L 319.277344 154.582031 L 319.277344 164.921875 L 320.777344 164.921875 L 320.777344 163.421875 L 320.777344 164.921875 L 322.277344 164.921875 L 322.277344 151.582031 L 102.921875 151.582031 L 102.921875 166.421875 L 322.277344 166.421875 L 322.277344 164.921875 L 320.777344 164.921875" fill="#231f20"/></g><g id="change1_16"><path d="M 233.007812 153.082031 L 192.195312 153.082031 L 192.195312 106.414062 L 233.007812 106.414062 L 233.007812 153.082031" fill="#ff1616"/></g><g id="change2_16"><path d="M 233.007812 153.082031 L 233.007812 151.582031 L 193.695312 151.582031 L 193.695312 107.914062 L 231.503906 107.914062 L 231.503906 153.082031 L 233.007812 153.082031 L 233.007812 151.582031 L 233.007812 153.082031 L 234.507812 153.082031 L 234.507812 104.914062 L 190.695312 104.914062 L 190.695312 154.582031 L 234.507812 154.582031 L 234.507812 153.082031 L 233.007812 153.082031" fill="#231f20"/></g><g id="change1_17"><path d="M 228.46875 148.710938 L 196.730469 148.710938 L 196.730469 110.785156 L 228.46875 110.785156 L 228.46875 148.710938" fill="#ff1616"/></g><g id="change2_17"><path d="M 228.46875 148.710938 L 228.46875 147.210938 L 198.230469 147.210938 L 198.230469 112.285156 L 226.96875 112.285156 L 226.96875 148.710938 L 228.46875 148.710938 L 228.46875 147.210938 L 228.46875 148.710938 L 229.96875 148.710938 L 229.96875 109.285156 L 195.226562 109.285156 L 195.226562 150.210938 L 229.96875 150.210938 L 229.96875 148.710938 L 228.46875 148.710938" fill="#231f20"/></g><g id="change1_18"><path d="M 141.3125 336.8125 L 120.320312 336.8125 L 123.238281 223.785156 L 138.394531 223.785156 L 141.3125 336.8125" fill="#ff1616"/></g><g id="change2_18"><path d="M 141.3125 336.8125 L 141.3125 335.3125 L 121.859375 335.3125 L 124.699219 225.285156 L 136.933594 225.285156 L 139.8125 336.851562 L 141.3125 336.8125 L 141.3125 335.3125 L 141.3125 336.8125 L 142.8125 336.773438 L 139.855469 222.285156 L 121.777344 222.285156 L 118.78125 338.3125 L 142.851562 338.3125 L 142.8125 336.773438 L 141.3125 336.8125" fill="#231f20"/></g><g id="change1_19"><path d="M 148.242188 359.492188 L 113.515625 359.492188 L 113.515625 343.710938 L 148.242188 343.710938 L 148.242188 359.492188" fill="#ff1616"/></g><g id="change2_19"><path d="M 148.242188 359.492188 L 148.242188 357.992188 L 115.015625 357.992188 L 115.015625 345.210938 L 146.742188 345.210938 L 146.742188 359.492188 L 148.242188 359.492188 L 148.242188 357.992188 L 148.242188 359.492188 L 149.742188 359.492188 L 149.742188 342.207031 L 112.011719 342.207031 L 112.011719 360.992188 L 149.742188 360.992188 L 149.742188 359.492188 L 148.242188 359.492188" fill="#231f20"/></g><g id="change1_20"><path d="M 145.570312 336.8125 L 116.183594 336.8125 L 116.183594 343.710938 L 145.570312 343.710938 L 145.570312 336.8125" fill="#ff1616"/></g><g id="change2_20"><path d="M 145.570312 336.8125 L 145.570312 335.3125 L 114.683594 335.3125 L 114.683594 345.210938 L 147.070312 345.210938 L 147.070312 335.3125 L 145.570312 335.3125 L 145.570312 336.8125 L 144.070312 336.8125 L 144.070312 342.207031 L 117.679688 342.207031 L 117.679688 338.3125 L 145.570312 338.3125 L 145.570312 336.8125 L 144.070312 336.8125 L 145.570312 336.8125" fill="#231f20"/></g><g id="change1_21"><path d="M 152.894531 220.339844 L 108.859375 220.339844 L 108.859375 227.230469 L 152.894531 227.230469 L 152.894531 220.339844" fill="#ff1616"/></g><g id="change2_21"><path d="M 152.894531 220.339844 L 152.894531 218.839844 L 107.359375 218.839844 L 107.359375 228.730469 L 154.390625 228.730469 L 154.390625 218.839844 L 152.894531 218.839844 L 152.894531 220.339844 L 151.394531 220.339844 L 151.394531 225.730469 L 110.359375 225.730469 L 110.359375 221.835938 L 152.894531 221.835938 L 152.894531 220.339844 L 151.394531 220.339844 L 152.894531 220.339844" fill="#231f20"/></g><g id="change1_22"><path d="M 158.863281 220.339844 L 102.890625 220.339844 L 130.878906 210.558594 Z M 158.863281 220.339844" fill="#ff1616"/></g><g id="change2_22"><path d="M 158.863281 220.339844 L 158.863281 218.839844 L 111.730469 218.839844 L 130.875 212.148438 L 158.367188 221.753906 L 158.863281 220.339844 L 158.863281 218.839844 L 158.863281 220.339844 L 159.359375 218.921875 L 130.875 208.96875 L 94.050781 221.835938 L 167.710938 221.835938 L 159.359375 218.921875 L 158.863281 220.339844" fill="#231f20"/></g><g id="change1_23"><path d="M 322.308594 220.339844 L 266.335938 220.339844 L 294.320312 210.558594 Z M 322.308594 220.339844" fill="#ff1616"/></g><g id="change2_23"><path d="M 322.308594 220.339844 L 322.308594 218.835938 L 275.175781 218.835938 L 294.320312 212.148438 L 321.8125 221.753906 L 322.308594 220.339844 L 322.308594 218.835938 L 322.308594 220.339844 L 322.800781 218.921875 L 294.320312 208.96875 L 257.492188 221.839844 L 331.152344 221.839844 L 322.800781 218.921875 L 322.308594 220.339844" fill="#231f20"/></g><g id="change1_24"><path d="M 304.761719 336.8125 L 283.765625 336.8125 L 286.683594 223.785156 L 301.839844 223.785156 L 304.761719 336.8125" fill="#ff1616"/></g><g id="change2_24"><path d="M 304.761719 336.8125 L 304.761719 335.3125 L 285.304688 335.3125 L 288.144531 225.285156 L 300.378906 225.285156 L 303.261719 336.851562 L 304.761719 336.8125 L 304.761719 335.3125 L 304.761719 336.8125 L 306.257812 336.773438 L 303.300781 222.285156 L 285.222656 222.285156 L 282.226562 338.3125 L 306.300781 338.3125 L 306.257812 336.773438 L 304.761719 336.8125" fill="#231f20"/></g><g id="change1_25"><path d="M 311.6875 359.492188 L 276.957031 359.492188 L 276.957031 343.710938 L 311.6875 343.710938 L 311.6875 359.492188" fill="#ff1616"/></g><g id="change2_25"><path d="M 311.6875 359.492188 L 311.6875 357.992188 L 278.457031 357.992188 L 278.457031 345.207031 L 310.1875 345.207031 L 310.1875 359.492188 L 311.6875 359.492188 L 311.6875 357.992188 L 311.6875 359.492188 L 313.1875 359.492188 L 313.1875 342.207031 L 275.457031 342.207031 L 275.457031 360.992188 L 313.1875 360.992188 L 313.1875 359.492188 L 311.6875 359.492188" fill="#231f20"/></g><g id="change1_26"><path d="M 309.015625 336.8125 L 279.625 336.8125 L 279.625 343.710938 L 309.015625 343.710938 L 309.015625 336.8125" fill="#ff1616"/></g><g id="change2_26"><path d="M 309.015625 336.8125 L 309.015625 335.3125 L 278.125 335.3125 L 278.125 345.207031 L 310.515625 345.207031 L 310.515625 335.3125 L 309.015625 335.3125 L 309.015625 336.8125 L 307.515625 336.8125 L 307.515625 342.210938 L 281.125 342.210938 L 281.125 338.3125 L 309.015625 338.3125 L 309.015625 336.8125 L 307.515625 336.8125 L 309.015625 336.8125" fill="#231f20"/></g><g id="change1_27"><path d="M 316.335938 220.339844 L 272.304688 220.339844 L 272.304688 227.230469 L 316.335938 227.230469 L 316.335938 220.339844" fill="#ff1616"/></g><g id="change2_27"><path d="M 316.335938 220.339844 L 316.335938 218.839844 L 270.804688 218.839844 L 270.804688 228.730469 L 317.835938 228.730469 L 317.835938 218.839844 L 316.335938 218.839844 L 316.335938 220.339844 L 314.835938 220.339844 L 314.835938 225.730469 L 273.804688 225.730469 L 273.804688 221.835938 L 316.335938 221.835938 L 316.335938 220.339844 L 314.835938 220.339844 L 316.335938 220.339844" fill="#231f20"/></g></g></svg>