<?xml version="1.0" encoding="UTF-8" standalone="no"?><svg xmlns="http://www.w3.org/2000/svg" xmlns:xlink="http://www.w3.org/1999/xlink" fill="#000000" height="91.8" preserveAspectRatio="xMidYMid meet" version="1" viewBox="10.2 4.1 79.4 91.8" width="79.4" zoomAndPan="magnify"><g id="change1_9"><path d="M77.6,31.6H22.4c-1.1,0-2-0.9-2-2s0.9-2,2-2c3.5,0,6.5-5.2,6.5-11.3c0-1.2-0.1-2.3-0.3-3.4 c-0.1-0.6,0-1.2,0.4-1.7c0.4-0.5,0.9-0.7,1.5-0.7h38.8c0.6,0,1.2,0.3,1.5,0.7c0.4,0.5,0.5,1.1,0.4,1.7C71.1,14,71,15.2,71,16.3 c0,6.1,3,11.3,6.5,11.3c1.1,0,2,0.9,2,2S78.7,31.6,77.6,31.6z M29.6,27.6h40.8c-2.1-2.8-3.4-6.8-3.4-11.3c0-0.6,0-1.2,0.1-1.8H32.9 c0,0.6,0.1,1.2,0.1,1.8C33,20.8,31.7,24.8,29.6,27.6z" fill="#ffffff"/></g><g id="change1_6"><path d="M87.8,70.1H12.2c-1.1,0-2-0.9-2-2s0.9-2,2-2c5.3,0,9.7-7.4,9.7-16.3c0-1.6-0.2-3.3-0.5-4.9 c-0.1-0.6,0-1.2,0.4-1.7s0.9-0.7,1.5-0.7h53.2c0.6,0,1.2,0.3,1.5,0.7s0.5,1.1,0.4,1.7c-0.3,1.6-0.5,3.2-0.5,4.9 c0,8.8,4.4,16.3,9.7,16.3c1.1,0,2,0.9,2,2S88.9,70.1,87.8,70.1z M20.4,66.1h59.1c-3.3-3.7-5.4-9.5-5.4-16.3c0-1.1,0.1-2.2,0.2-3.2 H25.7c0.1,1.1,0.2,2.2,0.2,3.2C25.9,56.5,23.8,62.4,20.4,66.1z" fill="#ffffff"/></g><g id="change1_3"><path d="M72.7,95.9H27.3c-1.1,0-2-0.9-2-2V68.1c0-1.1,0.9-2,2-2s2,0.9,2,2v23.8h41.3V68.1c0-1.1,0.9-2,2-2 s2,0.9,2,2v25.8C74.7,95,73.8,95.9,72.7,95.9z" fill="#ffffff"/></g><g id="change1_5"><path d="M64.4,46.6H35.6c-1.1,0-2-0.9-2-2v-15c0-1.1,0.9-2,2-2h28.9c1.1,0,2,0.9,2,2v15 C66.4,45.7,65.5,46.6,64.4,46.6z M37.6,42.6h24.9v-11H37.6V42.6z" fill="#ffffff"/></g><g id="change1_8"><path d="M69.4,14.5c-1.1,0-2-0.9-2-2s0.9-2,2-2c2.4,0,4.3-1.9,4.3-4.3V6.1c0-1.1,0.9-2,2-2s2,0.9,2,2v0.1 C77.7,10.8,74,14.5,69.4,14.5z" fill="#ffffff"/></g><g id="change1_7"><path d="M76.3,46.6c-1.1,0-2-0.9-2-2s0.9-2,2-2c2.4,0,4.3-1.9,4.3-4.3v-0.1c0-1.1,0.9-2,2-2s2,0.9,2,2v0.1 C84.6,42.9,80.9,46.6,76.3,46.6z" fill="#ffffff"/></g><g id="change1_1"><path d="M23.4,46.6c-4.6,0-8.3-3.7-8.3-8.3v-0.1c0-1.1,0.9-2,2-2s2,0.9,2,2v0.1c0,2.4,1.9,4.3,4.3,4.3 c1.1,0,2,0.9,2,2S24.5,46.6,23.4,46.6z" fill="#ffffff"/></g><g id="change1_2"><path d="M30.8,14.5c-4.6,0-8.3-3.7-8.3-8.3V6.1c0-1.1,0.9-2,2-2s2,0.9,2,2v0.1c0,2.4,1.9,4.3,4.3,4.3 c1.1,0,2,0.9,2,2S31.9,14.5,30.8,14.5z" fill="#ffffff"/></g><g id="change1_4"><path d="M57.9,95.9H42.1c-1.1,0-2-0.9-2-2v-5c0-5.4,4.4-9.9,9.9-9.9s9.9,4.4,9.9,9.9v5C59.9,95,59,95.9,57.9,95.9z M44.1,91.9h11.8v-3c0-3.2-2.6-5.9-5.9-5.9s-5.9,2.6-5.9,5.9V91.9z" fill="#ffffff"/></g></svg>